<svg xmlns="http://www.w3.org/2000/svg" xmlns:xlink="http://www.w3.org/1999/xlink" width="128" height="128" version="1.0"><defs><linearGradient id="e"><stop offset="0" stop-color="#e5a50a"/><stop offset=".042" stop-color="#f9cf69" stop-opacity=".965"/><stop offset=".097" stop-color="#f6ba29" stop-opacity=".965"/><stop offset=".921" stop-color="#f6ba2b" stop-opacity=".996"/><stop offset=".974" stop-color="#f9cf69"/><stop offset="1" stop-color="#e5a50a" stop-opacity=".828"/></linearGradient><linearGradient id="d"><stop offset="0" stop-color="#e5a50a"/><stop offset=".035" stop-color="#f6ba29" stop-opacity=".965"/><stop offset=".962" stop-color="#f6bb2c"/><stop offset="1" stop-color="#e5a50a" stop-opacity=".828"/></linearGradient><linearGradient id="a"><stop offset="0" stop-color="#d5d3cf"/><stop offset="1" stop-color="#f6f5f4"/></linearGradient><linearGradient id="b"><stop offset="0" stop-color="#d5d3cf"/><stop offset="1" stop-color="#949390"/></linearGradient><linearGradient id="c"><stop offset="0" stop-color="#9a9996"/><stop offset="1" stop-color="#77767b"/></linearGradient><linearGradient xlink:href="#d" id="g" x1="18" y1="196.232" x2="110.132" y2="196.232" gradientUnits="userSpaceOnUse"/><linearGradient xlink:href="#e" id="f" gradientUnits="userSpaceOnUse" x1="12" y1="196.232" x2="116" y2="196.232"/></defs><g transform="translate(0 -172)"><rect ry="8.721" rx="8.721" y="184" x="12" height="104" width="104" style="marker:none;font-variant-east_asian:normal" fill="url(#f)"/><rect style="marker:none" width="104" height="76" x="12" y="184" rx="8" ry="8" fill="#f9f06b"/><rect ry="2" rx="2" y="190" x="18" height="64" width="92" style="marker:none" fill="url(#g)"/><rect style="marker:none" width="92" height="40" x="18" y="214" rx="2" ry="2" fill="#e5a50a"/><path d="M22.204 200.057a2.18 2.18 0 0 0-2.18 2.18L20 254h18v8h52v-8h18l-.055-51.762a2.18 2.18 0 0 0-2.18-2.18H45.88z" style="marker:none" fill="#f6f5f4"/><path d="M20.462 200.676l43.169 34.886 43.606-34.886-43.606 37.066z" opacity=".1"/><path d="M22.204 200.676c-.466 0-.897.148-1.251.397l42.678 34.489 42.893-34.315a2.17 2.17 0 0 0-1.467-.57H45.88z" style="marker:none" fill="#f7f8f9"/><path style="marker:none" d="M63.63 224.84c-4 0-8 1.429-11.064 4.286l-32.542 22.92L20 252v2h88v-2l-33.305-22.874c-3.065-2.857-7.065-4.286-11.064-4.286z" opacity=".05"/><path d="M63.63 226.84c-4 0-8 1.429-11.064 4.286l-32.542 22.92L38 254v10h52v-10h18l-33.305-22.874c-3.065-2.857-7.065-4.286-11.064-4.286z" style="marker:none" fill="#f0f0ee"/><path d="M22.553 200.676a2.18 2.18 0 0 0-2.02 1.36l33.13 33.546a14.43 14.43 0 0 0 20.633 0l33.129-33.547a2.18 2.18 0 0 0-2.02-1.359H46.229z" style="marker:none" opacity=".12"/><path d="M22.553 200.676c-.472 0-.907.151-1.264.406l32.374 32.374a14.558 14.558 0 0 0 20.633 0l32.374-32.374a2.168 2.168 0 0 0-1.264-.406H46.228z" style="marker:none" fill="#f6f5f4"/><path d="M38 268v7c0 2.216 1.784 4 4 4h44c2.216 0 4-1.784 4-4v-7c0 2.216-1.784 4-4 4H42c-2.216 0-4-1.784-4-4z" fill="#f9f06b"/><path d="M90 264v4c0 2.216-1.784 4-4 4H42c-2.216 0-4-1.784-4-4v-4z" fill="#c0bfbc"/></g></svg>