<?xml version="1.0" encoding="UTF-8" standalone="no"?>
<svg
   xmlns:dc="http://purl.org/dc/elements/1.1/"
   xmlns:cc="http://creativecommons.org/ns#"
   xmlns:rdf="http://www.w3.org/1999/02/22-rdf-syntax-ns#"
   xmlns:svg="http://www.w3.org/2000/svg"
   xmlns="http://www.w3.org/2000/svg"
   xmlns:sodipodi="http://sodipodi.sourceforge.net/DTD/sodipodi-0.dtd"
   xmlns:inkscape="http://www.inkscape.org/namespaces/inkscape"
   version="1.1"
   id="Milk_Bottle"
   x="0px"
   y="0px"
   width="100px"
   height="100px"
   viewBox="0 0 100 100"
   enable-background="new 0 0 100 100"
   xml:space="preserve"
   inkscape:version="0.48.4 r9939"
   sodipodi:docname="archive-symbolic.svg"><metadata
     id="metadata19"><rdf:RDF><cc:Work
         rdf:about=""><dc:format>image/svg+xml</dc:format><dc:type
           rdf:resource="http://purl.org/dc/dcmitype/StillImage" /></cc:Work></rdf:RDF></metadata><defs
     id="defs17" /><sodipodi:namedview
     pagecolor="#ffffff"
     bordercolor="#666666"
     borderopacity="1"
     objecttolerance="10"
     gridtolerance="10"
     guidetolerance="10"
     inkscape:pageopacity="0"
     inkscape:pageshadow="2"
     inkscape:window-width="1097"
     inkscape:window-height="599"
     id="namedview15"
     showgrid="false"
     inkscape:zoom="2.36"
     inkscape:cx="-27.966102"
     inkscape:cy="50"
     inkscape:window-x="0"
     inkscape:window-y="24"
     inkscape:window-maximized="0"
     inkscape:current-layer="Milk_Bottle" /><polygon
     style="fill:#bebebe;fill-opacity:1"
     id="polygon5"
     points="78.185,34.493 22.277,34.493 21.202,38.346 79.26,38.346 " /><rect
     style="fill:#bebebe;fill-opacity:1"
     y="0"
     id="rect7"
     height="30"
     width="54"
     x="23" /><path
     d="M 66,57.854 C 66,55.726 64.275,54 62.147,54 H 38.853 C 36.725,54 35,55.726 35,57.854 v 4.293 C 35,64.274 36.725,66 38.853,66 H 62.148 C 64.275,66 66,64.274 66,62.146 v -4.292 z"
     id="path11"
     inkscape:connector-curvature="0"
     style="fill:none" /><path
     d="M 83.995,15 H 79 v 7.185 L 85.711,42 H 81.054 67.435 33.031 15.559 14.751 L 21,22.19 V 15 H 16.47 L 4.001,42.089 9.375,100 H 91.086 L 96.463,42.089 83.995,15 z M 67,63.94 C 67,67.229 65.59,70 63.315,70 H 38.222 C 35.948,70 34,67.229 34,63.94 V 57.573 C 34,54.285 35.948,52 38.222,52 H 63.316 C 65.59,52 67,54.285 67,57.573 v 6.367 z"
     id="path13"
     inkscape:connector-curvature="0"
     style="fill:#bebebe;fill-opacity:1" /></svg>