<?xml version="1.0" encoding="UTF-8" standalone="no"?>
<svg
   xmlns:dc="http://purl.org/dc/elements/1.1/"
   xmlns:cc="http://creativecommons.org/ns#"
   xmlns:rdf="http://www.w3.org/1999/02/22-rdf-syntax-ns#"
   xmlns:svg="http://www.w3.org/2000/svg"
   xmlns="http://www.w3.org/2000/svg"
   xmlns:sodipodi="http://sodipodi.sourceforge.net/DTD/sodipodi-0.dtd"
   xmlns:inkscape="http://www.inkscape.org/namespaces/inkscape"
   version="1.1"
   x="0px"
   y="0px"
   width="63.998474"
   height="67.998863"
   viewBox="0 0 63.998474 67.998863"
   xml:space="preserve"
   id="svg2"
   inkscape:version="0.48.4 r9939"
   sodipodi:docname="close-symbolic.svg"><metadata
     id="metadata12"><rdf:RDF><cc:Work
         rdf:about=""><dc:format>image/svg+xml</dc:format><dc:type
           rdf:resource="http://purl.org/dc/dcmitype/StillImage" /></cc:Work></rdf:RDF></metadata><defs
     id="defs10" /><sodipodi:namedview
     pagecolor="#ffffff"
     bordercolor="#666666"
     borderopacity="1"
     objecttolerance="10"
     gridtolerance="10"
     guidetolerance="10"
     inkscape:pageopacity="0"
     inkscape:pageshadow="2"
     inkscape:window-width="1277"
     inkscape:window-height="712"
     id="namedview8"
     showgrid="false"
     inkscape:zoom="2.36"
     inkscape:cx="-45.966434"
     inkscape:cy="33.998635"
     inkscape:window-x="0"
     inkscape:window-y="24"
     inkscape:window-maximized="0"
     inkscape:current-layer="svg2"
     fit-margin-top="0"
     fit-margin-left="0"
     fit-margin-right="0"
     fit-margin-bottom="0" /><g
     id="Captions"
     transform="translate(-18.000332,-15.999774)" /><path
     style="fill:#bebebe;fill-opacity:1;fill-rule:evenodd"
     inkscape:connector-curvature="0"
     id="path6"
     d="m 32.002668,45.176226 20.715,21.206 c 2.078,2.145 3.429,2.166 5.546,0 l 4.156,-4.256 c 2.035,-2.084 2.174,-3.451 0,-5.678 l -21.93,-22.448 21.931,-22.449 c 2.055,-2.1089999 2.094,-3.5329999 0,-5.6799999 l -4.156,-4.254 c -2.156,-2.20699996 -3.488,-2.10499996 -5.546,0 l -20.716,21.2069999 -20.714,-21.2069999 c -2.0590002,-2.10499996 -3.3910002,-2.20699996 -5.5470002,0 l -4.154,4.254 c -2.09600001,2.146 -2.05900001,3.57 0,5.6799999 l 21.9290002,22.449 -21.9290002,22.448 c -2.17400001,2.227 -2.05900001,3.594 0,5.678 l 4.154,4.256 c 2.098,2.166 3.449,2.145 5.5470002,0 l 20.714,-21.206 z" /></svg>