<?xml version="1.0" encoding="UTF-8" standalone="no"?>
<svg xmlns:dc="http://purl.org/dc/elements/1.1/" xmlns:cc="http://creativecommons.org/ns#" xmlns:rdf="http://www.w3.org/1999/02/22-rdf-syntax-ns#" xmlns:svg="http://www.w3.org/2000/svg" xmlns="http://www.w3.org/2000/svg" id="svg8" version="1.1" height="16" width="16">
  <metadata id="metadata14">
    <rdf:RDF>
      <cc:Work rdf:about="">
        <dc:format>image/svg+xml</dc:format>
        <dc:type rdf:resource="http://purl.org/dc/dcmitype/StillImage"/>
        <dc:title/>
      </cc:Work>
    </rdf:RDF>
  </metadata>
  <defs id="defs12"/>
  <g transform="translate(-17.966098,-9.83008)" id="g851">
    <g transform="translate(-123.0341,-347.16992)" id="g11782" style="display:inline;enable-background:new">
      <path transform="translate(141.0002,357)" d="M 3 2 L 3 4 L 9 4 C 9.42816 4 10 4.61414 10 5 L 10 6 L 5 6 C 4.08073 6 3.2644 6.3800638 2.75 6.9648438 C 2.2356 7.5496337 2.0072819 8.2891356 2.0136719 9.0097656 C 2.0200619 9.7303856 2.2591644 10.458569 2.7714844 11.037109 C 3.2838144 11.615649 4.09172 12 5 12 L 7 12 L 7 10 L 5 10 C 4.60213 10 4.4213712 9.8843506 4.2695312 9.7128906 C 4.1176913 9.5414306 4.0161519 9.2696144 4.0136719 8.9902344 C 4.0111919 8.7108644 4.1066231 8.4503663 4.2519531 8.2851562 C 4.3972831 8.1199362 4.57764 8 5 8 L 10 8 L 10 9 L 12 9 L 12 5 C 12 3.36566 10.6802 2 9 2 L 3 2 z " style="color:#000000;font-style:normal;font-variant:normal;font-weight:normal;font-stretch:normal;font-size:medium;line-height:normal;font-family:sans-serif;font-variant-ligatures:normal;font-variant-position:normal;font-variant-caps:normal;font-variant-numeric:normal;font-variant-alternates:normal;font-variant-east-asian:normal;font-feature-settings:normal;font-variation-settings:normal;text-indent:0;text-align:start;text-decoration:none;text-decoration-line:none;text-decoration-style:solid;text-decoration-color:#000000;letter-spacing:normal;word-spacing:normal;text-transform:none;writing-mode:lr-tb;direction:ltr;text-orientation:mixed;dominant-baseline:auto;baseline-shift:baseline;text-anchor:start;white-space:normal;shape-padding:0;shape-margin:0;inline-size:0;clip-rule:nonzero;display:inline;overflow:visible;visibility:visible;isolation:auto;mix-blend-mode:normal;color-interpolation:sRGB;color-interpolation-filters:linearRGB;solid-color:#000000;solid-opacity:1;vector-effect:none;fill:#2e3436;fill-opacity:1;fill-rule:nonzero;stroke:none;stroke-width:2;stroke-linecap:butt;stroke-linejoin:miter;stroke-miterlimit:4;stroke-dasharray:none;stroke-dashoffset:0;stroke-opacity:1;marker:none;anonymous:0;color-rendering:auto;image-rendering:auto;shape-rendering:auto;text-rendering:auto;enable-background:accumulate;stop-color:#000000;stop-opacity:1;opacity:1" id="path857"/>
    </g>
    <rect class="success" style="opacity:1;vector-effect:none;fill:#ed333b;fill-opacity:1;stroke:none;stroke-width:1;stroke-linecap:round;stroke-linejoin:round;stroke-miterlimit:4;stroke-dasharray:none;stroke-dashoffset:0;stroke-opacity:1" id="rect11786" width="6.9998798" height="5.9999051" x="25.966673" y="19.831032" rx="2" ry="2"/>
  </g>
</svg>
