<?xml version="1.0" encoding="UTF-8" standalone="no"?>
<!-- Created with Inkscape (http://www.inkscape.org/) -->

<svg
   xmlns:osb="http://www.openswatchbook.org/uri/2009/osb"
   xmlns:dc="http://purl.org/dc/elements/1.1/"
   xmlns:cc="http://creativecommons.org/ns#"
   xmlns:rdf="http://www.w3.org/1999/02/22-rdf-syntax-ns#"
   xmlns:svg="http://www.w3.org/2000/svg"
   xmlns="http://www.w3.org/2000/svg"
   xmlns:sodipodi="http://sodipodi.sourceforge.net/DTD/sodipodi-0.dtd"
   xmlns:inkscape="http://www.inkscape.org/namespaces/inkscape"
   sodipodi:docname="format-ordered-list-symbolic-rtl.svg"
   inkscape:export-filename="/home/sam/dev/RESOURCES/gnome-icon-theme-symbolic/src/gnome-stencils.png"
   inkscape:export-xdpi="90"
   inkscape:export-ydpi="90"
   height="16"
   id="svg7384"
   version="1.1"
   inkscape:version="0.92.2 5c3e80d, 2017-08-06"
   width="16">
  <metadata
     id="metadata90">
    <rdf:RDF>
      <cc:Work
         rdf:about="">
        <dc:format>image/svg+xml</dc:format>
        <dc:type
           rdf:resource="http://purl.org/dc/dcmitype/StillImage" />
        <dc:title>Gnome Symbolic Icon Theme</dc:title>
      </cc:Work>
    </rdf:RDF>
  </metadata>
  <sodipodi:namedview
     inkscape:bbox-nodes="true"
     inkscape:bbox-paths="true"
     bordercolor="#666666"
     borderopacity="1"
     inkscape:current-layer="layer12"
     inkscape:cx="1.9160332"
     inkscape:cy="7.2216409"
     gridtolerance="10"
     inkscape:guide-bbox="true"
     guidetolerance="10"
     id="namedview88"
     inkscape:object-nodes="true"
     inkscape:object-paths="false"
     objecttolerance="10"
     pagecolor="#3a3b39"
     inkscape:pageopacity="1"
     inkscape:pageshadow="2"
     showborder="true"
     showgrid="true"
     showguides="true"
     inkscape:snap-bbox="true"
     inkscape:snap-bbox-midpoints="false"
     inkscape:snap-global="true"
     inkscape:snap-grids="true"
     inkscape:snap-nodes="false"
     inkscape:snap-others="false"
     inkscape:snap-to-guides="true"
     inkscape:window-height="1471"
     inkscape:window-maximized="1"
     inkscape:window-width="2560"
     inkscape:window-x="0"
     inkscape:window-y="55"
     inkscape:zoom="40.96">
    <inkscape:grid
       dotted="false"
       empspacing="2"
       enabled="true"
       id="grid4866"
       originx="199.9998"
       originy="650"
       snapvisiblegridlinesonly="true"
       spacingx="1"
       spacingy="1"
       type="xygrid"
       visible="true" />
  </sodipodi:namedview>
  <title
     id="title9167">Gnome Symbolic Icon Theme</title>
  <defs
     id="defs7386">
    <linearGradient
       gradientTransform="matrix(-2.7365795,0.28202934,-0.18908311,-0.99988321,239.54008,-879.45557)"
       id="linearGradient19282"
       osb:paint="solid">
      <stop
         id="stop19284"
         offset="0"
         style="stop-color:#666666;stop-opacity:1;" />
    </linearGradient>
  </defs>
  <g
     inkscape:groupmode="layer"
     id="layer12"
     inkscape:label="actions"
     style="display:inline"
     transform="translate(-41.000401,-867)">
    <rect
       height="2"
       id="rect5356"
       inkscape:label="a"
       style="color:#000000;display:inline;overflow:visible;visibility:visible;fill:#bebebe;fill-opacity:1;fill-rule:nonzero;stroke:none;stroke-width:1;marker:none;enable-background:new"
       width="5.999999"
       x="-49.222195"
       y="874"
       transform="scale(-1,1)" />
    <rect
       height="2"
       id="rect5358"
       inkscape:label="a"
       style="color:#000000;display:inline;overflow:visible;visibility:visible;fill:#bebebe;fill-opacity:1;fill-rule:nonzero;stroke:none;stroke-width:1;marker:none;enable-background:new"
       width="5.999999"
       x="-49.222198"
       y="878.98438"
       transform="scale(-1,1)" />
    <rect
       height="2"
       id="rect5358-3"
       inkscape:label="a"
       style="color:#000000;display:inline;overflow:visible;visibility:visible;fill:#bebebe;fill-opacity:1;fill-rule:nonzero;stroke:none;stroke-width:1;marker:none;enable-background:new"
       width="5.999999"
       x="-49.222195"
       y="869"
       transform="scale(-1,1)" />
    <g
       aria-label="1"
       transform="matrix(1.3334183,0,0,1.0799312,-0.58323683,-173.99998)"
       style="color:#bebebe;font-style:normal;font-variant:normal;font-weight:bold;font-stretch:normal;font-size:2.73056865px;line-height:1.25;font-family:'Liberation Sans';-inkscape-font-specification:'Liberation Sans Bold';letter-spacing:0px;word-spacing:0px;display:inline;overflow:visible;visibility:visible;fill:#bebebe;fill-opacity:1;stroke:none;stroke-width:0.05688684;marker:none"
       id="text3813">
      <path
         d="m 39.195934,968.56287 v -0.54427 h 0.908854 v -2.50261 l -0.880208,0.54948 v -0.57552 l 0.919271,-0.59635 h 0.692708 v 3.125 h 0.841146 v 0.54427 z"
         style="font-style:normal;font-variant:normal;font-weight:bold;font-stretch:normal;font-size:5.33333349px;font-family:'Liberation Sans';-inkscape-font-specification:'Liberation Sans Bold';fill:#bebebe;fill-opacity:1;stroke-width:0.05688684"
         id="path8361"
         inkscape:connector-curvature="0" />
    </g>
    <g
       aria-label="2"
       transform="matrix(1.3159259,0,0,1.0942866,-0.58323683,-175)"
       style="color:#bebebe;font-style:normal;font-variant:normal;font-weight:bold;font-stretch:normal;font-size:2.73056865px;line-height:1.25;font-family:'Liberation Sans';-inkscape-font-specification:'Liberation Sans Bold';letter-spacing:0px;word-spacing:0px;display:inline;overflow:visible;visibility:visible;fill:#bebebe;fill-opacity:1;stroke:none;stroke-width:0.05688684;marker:none"
       id="text4622">
      <path
         d="m 39.671327,961.39124 v -0.50782 q 0.143229,-0.3151 0.40625,-0.61458 0.265625,-0.29948 0.666667,-0.625 0.385416,-0.3125 0.539062,-0.51563 0.15625,-0.20312 0.15625,-0.39843 0,-0.47917 -0.481771,-0.47917 -0.234375,0 -0.359375,0.1276 -0.122396,0.125 -0.158854,0.37761 l -0.736979,-0.0417 q 0.0625,-0.51041 0.380208,-0.77864 0.320313,-0.26823 0.869792,-0.26823 0.59375,0 0.911458,0.27083 0.317709,0.27083 0.317709,0.76042 0,0.25781 -0.101563,0.46614 -0.101562,0.20834 -0.260416,0.38542 -0.158855,0.17448 -0.354167,0.32812 -0.192708,0.15365 -0.375,0.29948 -0.182292,0.14584 -0.333334,0.29427 -0.148437,0.14844 -0.221354,0.31771 h 1.703125 v 0.60157 z"
         style="font-style:normal;font-variant:normal;font-weight:bold;font-stretch:normal;font-size:5.33333349px;font-family:'Liberation Sans';-inkscape-font-specification:'Liberation Sans Bold';fill:#bebebe;fill-opacity:1;stroke-width:0.12312645"
         id="path8358"
         inkscape:connector-curvature="0" />
    </g>
    <g
       aria-label="3"
       transform="matrix(1.2650125,0,0,1.1383287,-0.58323683,-175.9969)"
       style="color:#bebebe;font-style:normal;font-variant:normal;font-weight:bold;font-stretch:normal;font-size:2.73056865px;line-height:1.25;font-family:'Liberation Sans';-inkscape-font-specification:'Liberation Sans Bold';letter-spacing:0px;word-spacing:0px;display:inline;overflow:visible;visibility:visible;fill:#bebebe;fill-opacity:1;stroke:none;stroke-width:0.05688684;marker:none"
       id="text4626">
      <path
         d="m 43.938438,928.47316 q 0,0.51563 -0.338541,0.79688 -0.338542,0.28125 -0.963542,0.28125 -0.591146,0 -0.940104,-0.27083 -0.348958,-0.27344 -0.408854,-0.78646 l 0.744791,-0.0651 q 0.07031,0.52865 0.601563,0.52865 0.263021,0 0.408854,-0.13021 0.145833,-0.13021 0.145833,-0.39844 0,-0.24479 -0.177083,-0.375 -0.177083,-0.1302 -0.526042,-0.1302 h -0.255208 v -0.59115 h 0.239583 q 0.315105,0 0.473959,-0.1276 0.158854,-0.13021 0.158854,-0.3698 0,-0.22656 -0.127604,-0.35416 -0.125,-0.13021 -0.367188,-0.13021 -0.226562,0 -0.367187,0.125 -0.138021,0.125 -0.158854,0.35417 l -0.731771,-0.0521 q 0.05729,-0.47396 0.393229,-0.74219 0.335937,-0.26822 0.877604,-0.26822 0.575521,0 0.898438,0.26041 0.32552,0.25781 0.32552,0.71615 0,0.34375 -0.203125,0.5651 -0.20052,0.22136 -0.580729,0.29427 v 0.0104 q 0.421875,0.0495 0.648438,0.27865 0.229166,0.22656 0.229166,0.58072 z"
         style="font-style:normal;font-variant:normal;font-weight:bold;font-stretch:normal;font-size:5.33333349px;font-family:'Liberation Sans';-inkscape-font-specification:'Liberation Sans Bold';fill:#bebebe;fill-opacity:1;stroke-width:0.12352152"
         id="path8355"
         inkscape:connector-curvature="0" />
    </g>
  </g>
</svg>
