<?xml version="1.0" encoding="iso-8859-1"?>
<!-- Generator: Adobe Illustrator 16.0.0, SVG Export Plug-In . SVG Version: 6.00 Build 0)  -->
<!DOCTYPE svg PUBLIC "-//W3C//DTD SVG 1.1//EN" "http://www.w3.org/Graphics/SVG/1.1/DTD/svg11.dtd">
<svg xmlns="http://www.w3.org/2000/svg" xmlns:xlink="http://www.w3.org/1999/xlink" version="1.1" id="Capa_1" x="0px" y="0px" width="512px" height="512px" viewBox="0 0 533.333 533.333" style="enable-background:new 0 0 533.333 533.333;" xml:space="preserve">
<g>
	<path d="M183.333,433.333h333.333V500H183.333V433.333z M183.333,233.333h333.333V300H183.333V233.333z M183.333,33.333h333.333   V100H183.333V33.333z M83.333,0v133.333H50v-100H16.667V0H83.333z M50,273.958V300h66.667v33.333h-100v-76.042l66.667-31.25V200   H16.667v-33.333h100v76.042L50,273.958z M116.667,366.667v166.666h-100V500h66.667v-33.333H16.667v-33.334h66.667V400H16.667   v-33.333H116.667z" fill="#F2F2F2"/>
</g>
<g>
</g>
<g>
</g>
<g>
</g>
<g>
</g>
<g>
</g>
<g>
</g>
<g>
</g>
<g>
</g>
<g>
</g>
<g>
</g>
<g>
</g>
<g>
</g>
<g>
</g>
<g>
</g>
<g>
</g>
</svg>
