<?xml version="1.0" encoding="UTF-8" standalone="no"?>
<!-- Created with Inkscape (http://www.inkscape.org/) -->

<svg
   xmlns:dc="http://purl.org/dc/elements/1.1/"
   xmlns:cc="http://creativecommons.org/ns#"
   xmlns:rdf="http://www.w3.org/1999/02/22-rdf-syntax-ns#"
   xmlns:svg="http://www.w3.org/2000/svg"
   xmlns="http://www.w3.org/2000/svg"
   xmlns:sodipodi="http://sodipodi.sourceforge.net/DTD/sodipodi-0.dtd"
   xmlns:inkscape="http://www.inkscape.org/namespaces/inkscape"
   version="1.1"
   width="16.084999"
   height="16.024"
   id="svg7384"
   inkscape:version="0.48.4 r9939"
   sodipodi:docname="layout-horizontal-symbolic.svg">
  <sodipodi:namedview
     pagecolor="#ffffff"
     bordercolor="#666666"
     borderopacity="1"
     objecttolerance="10"
     gridtolerance="10"
     guidetolerance="10"
     inkscape:pageopacity="0"
     inkscape:pageshadow="2"
     inkscape:window-width="1226"
     inkscape:window-height="991"
     id="namedview10"
     showgrid="true"
     inkscape:zoom="41.656814"
     inkscape:cx="2.6025787"
     inkscape:cy="7.879961"
     inkscape:window-x="0"
     inkscape:window-y="27"
     inkscape:window-maximized="0"
     inkscape:current-layer="layer12">
    <inkscape:grid
       type="xygrid"
       id="grid3018"
       empspacing="5"
       visible="true"
       enabled="true"
       snapvisiblegridlinesonly="true" />
  </sodipodi:namedview>
  <title
     id="title9167">Gnome Symbolic Icon Theme</title>
  <defs
     id="defs17" />
  <metadata
     id="metadata90">
    <rdf:RDF>
      <cc:Work
         rdf:about="">
        <dc:format>image/svg+xml</dc:format>
        <dc:type
           rdf:resource="http://purl.org/dc/dcmitype/StillImage" />
        <dc:title>Gnome Symbolic Icon Theme</dc:title>
      </cc:Work>
    </rdf:RDF>
  </metadata>
  <g
     transform="translate(-60.952,-646.98)"
     id="layer12">
    <path
       style="fill:#bebebe;fill-opacity:1;fill-rule:nonzero;stroke:none"
       d="M 2,0.01675034 C 1.0000002,0.01614618 0,1.0167503 0,2.0167503 L 0,14.01675 c 0,1 0.99999998,1.999396 2,2 l 12,0.0073 c 1,6.04e-4 2,-1 2,-2 L 16,2.0240002 c 0,-1 -1,-1.99939588 -2,-2.00000003 z M 3,14.01675 c -0.554,0 -1,-0.446 -1,-1 L 2,3.0167503 c 0,-0.554 0.446,-1 1,-1 2.6666667,0 7.333333,0.00725 10,0.00725 0.554,0 1,0.446 1,1 L 14,13.024 c 0,0.554 -0.446,1 -1,1"
       transform="translate(60.952,646.98)"
       id="rect3819"
       inkscape:connector-curvature="0"
       sodipodi:nodetypes="ssssssssscssccssc" />
    <rect
       style="fill:#bebebe;fill-opacity:1;fill-rule:nonzero;stroke:none"
       id="rect3870"
       width="2"
       height="10"
       x="4"
       y="3.0240002"
       transform="translate(60.952,646.98)"
       ry="0" />
    <rect
       ry="0"
       y="650.00403"
       x="69.952003"
       height="9.9999714"
       width="1.9999965"
       id="rect4380"
       style="fill:#bebebe;fill-opacity:1;fill-rule:nonzero;stroke:none" />
  </g>
</svg>
