<?xml version="1.0" encoding="UTF-8" standalone="no"?>
<svg
   xmlns:dc="http://purl.org/dc/elements/1.1/"
   xmlns:cc="http://creativecommons.org/ns#"
   xmlns:rdf="http://www.w3.org/1999/02/22-rdf-syntax-ns#"
   xmlns:svg="http://www.w3.org/2000/svg"
   xmlns="http://www.w3.org/2000/svg"
   xmlns:sodipodi="http://sodipodi.sourceforge.net/DTD/sodipodi-0.dtd"
   xmlns:inkscape="http://www.inkscape.org/namespaces/inkscape"
   id="svg10"
   version="1.1"
   height="16"
   width="16"
   sodipodi:docname="mail-reply-all-symbolic.svg"
   inkscape:version="0.92.4 (5da689c313, 2019-01-14)">
  <sodipodi:namedview
     pagecolor="#ffffff"
     bordercolor="#666666"
     borderopacity="1"
     objecttolerance="10"
     gridtolerance="10"
     guidetolerance="10"
     inkscape:pageopacity="0"
     inkscape:pageshadow="2"
     inkscape:window-width="1600"
     inkscape:window-height="863"
     id="namedview9"
     showgrid="false"
     inkscape:zoom="22.627417"
     inkscape:cx="6.3171439"
     inkscape:cy="3.1999712"
     inkscape:window-x="0"
     inkscape:window-y="400"
     inkscape:window-maximized="1"
     inkscape:current-layer="svg10" />
  <metadata
     id="metadata16">
    <rdf:RDF>
      <cc:Work
         rdf:about="">
        <dc:format>image/svg+xml</dc:format>
        <dc:type
           rdf:resource="http://purl.org/dc/dcmitype/StillImage" />
        <dc:title />
      </cc:Work>
    </rdf:RDF>
  </metadata>
  <defs
     id="defs14" />
  <g
     style="fill:#bebebe;fill-opacity:1"
     id="g8"
     font-weight="400"
     fill="#2e3436">
    <path
       id="path2"
       overflow="visible"
       style="line-height:normal;font-variant-ligatures:normal;font-variant-position:normal;font-variant-caps:normal;font-variant-numeric:normal;font-variant-alternates:normal;font-feature-settings:normal;text-indent:0;text-align:start;text-decoration-line:none;text-decoration-style:solid;text-decoration-color:#000;text-transform:none;text-orientation:mixed;shape-padding:0;isolation:auto;mix-blend-mode:normal;marker:none;fill:#bebebe;fill-opacity:1"
       d="M7 6v2h2.994s.791.014 1.553.395c.761.38 1.447.938 1.447 2.605v2h2v-2c0-2.333-1.314-3.775-2.553-4.395C11.203 5.986 9.994 6 9.994 6z"
       white-space="normal"
       font-family="sans-serif"
       color="#000" />
    <path
       id="path4"
       overflow="visible"
       style="line-height:normal;-inkscape-font-specification:'Bitstream Vera Sans';text-indent:0;text-align:start;text-decoration-line:none;text-transform:none;marker:none;fill:#bebebe;fill-opacity:1"
       d="M6 3.022v1c0 .257-.13.529-.313.719l-2.28 2.281 2.28 2.281c.183.19.313.462.313.72v1H5c-.31 0-.552-.091-.75-.282L.594 7.022 4.25 3.303c.198-.19.44-.28.75-.28z"
       font-family="Bitstream Vera Sans"
       color="#bebebe" />
    <path
       id="path6"
       overflow="visible"
       style="line-height:normal;-inkscape-font-specification:'Bitstream Vera Sans';text-indent:0;text-align:start;text-decoration-line:none;text-transform:none;marker:none;fill:#bebebe;fill-opacity:1"
       d="M10 3.022v1c0 .257-.13.529-.313.719l-2.28 2.281 2.28 2.281c.183.19.313.462.313.72v1H9c-.31 0-.552-.091-.75-.282L4.594 7.022 8.25 3.303c.198-.19.44-.28.75-.28z"
       font-family="Bitstream Vera Sans"
       color="#bebebe" />
  </g>
</svg>
