<?xml version="1.0" encoding="UTF-8" standalone="no"?>
<svg
   xmlns:dc="http://purl.org/dc/elements/1.1/"
   xmlns:cc="http://creativecommons.org/ns#"
   xmlns:rdf="http://www.w3.org/1999/02/22-rdf-syntax-ns#"
   xmlns:svg="http://www.w3.org/2000/svg"
   xmlns="http://www.w3.org/2000/svg"
   id="svg8"
   version="1.1"
   height="16"
   width="16">
  <metadata
     id="metadata14">
    <rdf:RDF>
      <cc:Work
         rdf:about="">
        <dc:format>image/svg+xml</dc:format>
        <dc:type
           rdf:resource="http://purl.org/dc/dcmitype/StillImage" />
        <dc:title></dc:title>
      </cc:Work>
    </rdf:RDF>
  </metadata>
  <defs
     id="defs12" />
  <g
     style="font-weight:400;fill:#2e3436"
     transform="matrix(-1,0,0,1,15.994,0)"
     id="g6"
     font-weight="400">
    <path
       id="path2"
       overflow="visible"
       style="color:#000000;line-height:normal;font-family:sans-serif;font-variant-ligatures:normal;font-variant-position:normal;font-variant-caps:normal;font-variant-numeric:normal;font-variant-alternates:normal;font-feature-settings:normal;text-indent:0;text-align:start;text-decoration:none;text-decoration-line:none;text-decoration-style:solid;text-decoration-color:#000000;text-transform:none;text-orientation:mixed;white-space:normal;shape-padding:0;overflow:visible;isolation:auto;mix-blend-mode:normal;fill:#bebebe;fill-opacity:1;marker:none"
       d="m 4,6 v 2 h 4.994 c 0,0 0.791,0.014 1.553,0.395 0.761,0.38 1.447,0.938 1.447,2.605 v 2 h 2 V 11 C 13.994,8.667 12.68,7.225 11.441,6.605 10.203,5.986 8.994,6 8.994,6 Z" />
    <path
       id="path4"
       overflow="visible"
       style="color:#bebebe;line-height:normal;font-family:'Bitstream Vera Sans';-inkscape-font-specification:'Bitstream Vera Sans';text-indent:0;text-align:start;text-decoration:none;text-decoration-line:none;text-transform:none;overflow:visible;fill:#bebebe;fill-opacity:1;marker:none"
       d="m 7,3.022 v 1 C 7,4.279 6.87,4.551 6.687,4.741 l -2.28,2.281 2.28,2.281 C 6.87,9.493 7,9.765 7,10.023 v 1 H 6 c -0.31,0 -0.552,-0.091 -0.75,-0.282 L 1.594,7.022 5.25,3.303 C 5.448,3.113 5.69,3.023 6,3.023 Z" />
  </g>
</svg>
