<?xml version="1.0" encoding="UTF-8" standalone="no"?>
<svg
   xmlns:dc="http://purl.org/dc/elements/1.1/"
   xmlns:cc="http://creativecommons.org/ns#"
   xmlns:rdf="http://www.w3.org/1999/02/22-rdf-syntax-ns#"
   xmlns:svg="http://www.w3.org/2000/svg"
   xmlns="http://www.w3.org/2000/svg"
   xmlns:sodipodi="http://sodipodi.sourceforge.net/DTD/sodipodi-0.dtd"
   xmlns:inkscape="http://www.inkscape.org/namespaces/inkscape"
   id="svg10"
   version="1.1"
   height="16"
   width="16"
   sodipodi:docname="mail-reply-all-symbolic-rtl.svg"
   inkscape:version="0.92.4 (5da689c313, 2019-01-14)">
  <sodipodi:namedview
     pagecolor="#ffffff"
     bordercolor="#666666"
     borderopacity="1"
     objecttolerance="10"
     gridtolerance="10"
     guidetolerance="10"
     inkscape:pageopacity="0"
     inkscape:pageshadow="2"
     inkscape:window-width="1600"
     inkscape:window-height="863"
     id="namedview9"
     showgrid="false"
     inkscape:zoom="22.627417"
     inkscape:cx="6.3171439"
     inkscape:cy="3.1999712"
     inkscape:window-x="0"
     inkscape:window-y="400"
     inkscape:window-maximized="1"
     inkscape:current-layer="svg10">
    <inkscape:grid
       type="xygrid"
       id="grid819" />
  </sodipodi:namedview>
  <metadata
     id="metadata16">
    <rdf:RDF>
      <cc:Work
         rdf:about="">
        <dc:format>image/svg+xml</dc:format>
        <dc:type
           rdf:resource="http://purl.org/dc/dcmitype/StillImage" />
        <dc:title></dc:title>
      </cc:Work>
    </rdf:RDF>
  </metadata>
  <defs
     id="defs14" />
  <g
     style="font-weight:400;fill:#bebebe;fill-opacity:1"
     id="g8"
     font-weight="400"
     transform="matrix(-1,0,0,1,15.994,0)">
    <path
       id="path2"
       overflow="visible"
       style="color:#000000;line-height:normal;font-family:sans-serif;font-variant-ligatures:normal;font-variant-position:normal;font-variant-caps:normal;font-variant-numeric:normal;font-variant-alternates:normal;font-feature-settings:normal;text-indent:0;text-align:start;text-decoration:none;text-decoration-line:none;text-decoration-style:solid;text-decoration-color:#000000;text-transform:none;text-orientation:mixed;white-space:normal;shape-padding:0;overflow:visible;isolation:auto;mix-blend-mode:normal;fill:#bebebe;fill-opacity:1;marker:none"
       d="m 7,6 v 2 h 2.994 c 0,0 0.791,0.014 1.553,0.395 0.761,0.38 1.447,0.938 1.447,2.605 v 2 h 2 V 11 C 14.994,8.667 13.68,7.225 12.441,6.605 11.203,5.986 9.994,6 9.994,6 Z"
       inkscape:connector-curvature="0" />
    <path
       id="path4"
       overflow="visible"
       style="color:#bebebe;line-height:normal;font-family:'Bitstream Vera Sans';-inkscape-font-specification:'Bitstream Vera Sans';text-indent:0;text-align:start;text-decoration:none;text-decoration-line:none;text-transform:none;overflow:visible;fill:#bebebe;fill-opacity:1;marker:none"
       d="m 6,3.022 v 1 C 6,4.279 5.87,4.551 5.687,4.741 l -2.28,2.281 2.28,2.281 C 5.87,9.493 6,9.765 6,10.023 v 1 H 5 c -0.31,0 -0.552,-0.091 -0.75,-0.282 L 0.594,7.022 4.25,3.303 C 4.448,3.113 4.69,3.023 5,3.023 Z"
       inkscape:connector-curvature="0" />
    <path
       id="path6"
       overflow="visible"
       style="color:#bebebe;line-height:normal;font-family:'Bitstream Vera Sans';-inkscape-font-specification:'Bitstream Vera Sans';text-indent:0;text-align:start;text-decoration:none;text-decoration-line:none;text-transform:none;overflow:visible;fill:#bebebe;fill-opacity:1;marker:none"
       d="m 10,3.022 v 1 C 10,4.279 9.87,4.551 9.687,4.741 l -2.28,2.281 2.28,2.281 C 9.87,9.493 10,9.765 10,10.023 v 1 H 9 c -0.31,0 -0.552,-0.091 -0.75,-0.282 L 4.594,7.022 8.25,3.303 C 8.448,3.113 8.69,3.023 9,3.023 Z"
       inkscape:connector-curvature="0" />
  </g>
</svg>
