<?xml version="1.0" encoding="UTF-8" standalone="no"?>
<svg
   xmlns:dc="http://purl.org/dc/elements/1.1/"
   xmlns:cc="http://creativecommons.org/ns#"
   xmlns:rdf="http://www.w3.org/1999/02/22-rdf-syntax-ns#"
   xmlns:svg="http://www.w3.org/2000/svg"
   xmlns="http://www.w3.org/2000/svg"
   id="svg8"
   version="1.1"
   height="16"
   width="16">
  <metadata
     id="metadata14">
    <rdf:RDF>
      <cc:Work
         rdf:about="">
        <dc:format>image/svg+xml</dc:format>
        <dc:type
           rdf:resource="http://purl.org/dc/dcmitype/StillImage" />
        <dc:title></dc:title>
      </cc:Work>
    </rdf:RDF>
  </metadata>
  <defs
     id="defs12" />
  <g
     id="g6"
     fill="#2e3436"
     font-weight="400">
    <path
       id="path2"
       overflow="visible"
       white-space="normal"
       font-family="sans-serif"
       color="#000"
       style="line-height:normal;font-variant-ligatures:normal;font-variant-position:normal;font-variant-caps:normal;font-variant-numeric:normal;font-variant-alternates:normal;font-feature-settings:normal;text-indent:0;text-align:start;text-decoration-line:none;text-decoration-style:solid;text-decoration-color:#000;text-transform:none;text-orientation:mixed;shape-padding:0;isolation:auto;mix-blend-mode:normal;marker:none;fill:#bebebe;fill-opacity:1"
       d="M7.006 6s-1.209-.014-2.447.605C3.32 7.225 2.006 8.667 2.006 11v2h2v-2c0-1.667.686-2.225 1.447-2.605A4.045 4.045 0 0 1 7.006 8H12V6z" />
    <path
       id="path4"
       overflow="visible"
       font-family="Bitstream Vera Sans"
       color="#bebebe"
       style="line-height:normal;-inkscape-font-specification:'Bitstream Vera Sans';text-indent:0;text-align:start;text-decoration-line:none;text-transform:none;marker:none;fill:#bebebe;fill-opacity:1"
       d="M9 3.022v1c0 .257.13.529.313.719l2.28 2.281-2.28 2.281c-.183.19-.313.462-.313.72v1h1c.31 0 .552-.091.75-.282l3.656-3.719-3.656-3.719c-.198-.19-.44-.28-.75-.28z" />
  </g>
</svg>
