<?xml version="1.0" encoding="UTF-8" standalone="no"?>
<!-- Generator: Adobe Illustrator 16.0.0, SVG Export Plug-In . SVG Version: 6.00 Build 0)  -->

<svg
   xmlns:dc="http://purl.org/dc/elements/1.1/"
   xmlns:cc="http://creativecommons.org/ns#"
   xmlns:rdf="http://www.w3.org/1999/02/22-rdf-syntax-ns#"
   xmlns:svg="http://www.w3.org/2000/svg"
   xmlns="http://www.w3.org/2000/svg"
   xmlns:sodipodi="http://sodipodi.sourceforge.net/DTD/sodipodi-0.dtd"
   xmlns:inkscape="http://www.inkscape.org/namespaces/inkscape"
   version="1.1"
   id="Layer_1"
   x="0px"
   y="0px"
   width="100px"
   height="95.912px"
   viewBox="0 2.044 100 95.912"
   enable-background="new 0 2.044 100 95.912"
   xml:space="preserve"
   inkscape:version="0.48.4 r9939"
   sodipodi:docname="marker-symbolic.svg"><metadata
     id="metadata9"><rdf:RDF><cc:Work
         rdf:about=""><dc:format>image/svg+xml</dc:format><dc:type
           rdf:resource="http://purl.org/dc/dcmitype/StillImage" /></cc:Work></rdf:RDF></metadata><defs
     id="defs7" /><sodipodi:namedview
     pagecolor="#ffffff"
     bordercolor="#666666"
     borderopacity="1"
     objecttolerance="10"
     gridtolerance="10"
     guidetolerance="10"
     inkscape:pageopacity="0"
     inkscape:pageshadow="2"
     inkscape:window-width="769"
     inkscape:window-height="480"
     id="namedview5"
     showgrid="false"
     inkscape:zoom="2.4605888"
     inkscape:cx="50"
     inkscape:cy="47.956001"
     inkscape:window-x="0"
     inkscape:window-y="24"
     inkscape:window-maximized="0"
     inkscape:current-layer="Layer_1" /><path
     d="M99.126,40.353c-1.165-1.164-3.053-1.164-4.217,0L77.876,57.384l-33.214-33.22l17.03-17.028  c1.165-1.163,1.165-3.051,0-4.217c-1.165-1.166-3.052-1.166-4.217,0L38.34,22.051c-0.001,0.001-0.004,0.003-0.005,0.004  l-6.772,6.771c-0.029,0.03-0.049,0.066-0.077,0.096c-0.115,0.125-0.225,0.252-0.314,0.39c-0.028,0.043-0.046,0.092-0.072,0.137  c-0.078,0.134-0.151,0.27-0.207,0.412c-0.004,0.011-0.012,0.021-0.016,0.033l-8.73,23.428L11.989,63.479  c-1.164,1.166-1.164,3.054,0,4.219l2.216,2.215L0.874,83.243c-0.667,0.665-0.979,1.608-0.843,2.539  c0.137,0.933,0.705,1.747,1.534,2.195l17.796,9.621c0.447,0.239,0.934,0.357,1.417,0.357c0.772,0,1.537-0.3,2.11-0.874l9.244-9.241  l2.268,2.269c0.581,0.581,1.345,0.873,2.109,0.873c0.762,0,1.526-0.292,2.108-0.873l10.161-10.161l23.374-8.782  c0.01-0.003,0.018-0.009,0.026-0.013c0.163-0.063,0.321-0.146,0.475-0.239c0.024-0.014,0.051-0.023,0.074-0.038  c0.173-0.111,0.336-0.241,0.487-0.393l6.772-6.773l19.139-19.138C100.291,43.404,100.291,41.518,99.126,40.353z M73.661,61.602  l-2.555,2.555l-33.218-33.22l2.554-2.554L73.661,61.602z M46.076,74.591c-0.397,0.15-0.758,0.382-1.059,0.684l-8.508,8.508  L18.317,65.59l8.507-8.508c0.303-0.304,0.536-0.669,0.686-1.069l7.335-19.685l30.878,30.883L46.076,74.591z"
     id="path3"
     style="fill:#bebebe;fill-opacity:1" /></svg>