<?xml version="1.0" encoding="UTF-8" standalone="no"?>
<svg
   xmlns:dc="http://purl.org/dc/elements/1.1/"
   xmlns:cc="http://creativecommons.org/ns#"
   xmlns:rdf="http://www.w3.org/1999/02/22-rdf-syntax-ns#"
   xmlns:svg="http://www.w3.org/2000/svg"
   xmlns="http://www.w3.org/2000/svg"
   xmlns:sodipodi="http://sodipodi.sourceforge.net/DTD/sodipodi-0.dtd"
   xmlns:inkscape="http://www.inkscape.org/namespaces/inkscape"
   version="1.1"
   id="Layer_1"
   x="0px"
   y="0px"
   width="100px"
   height="100px"
   viewBox="0 0 100 100"
   enable-background="new 0 0 100 100"
   xml:space="preserve"
   inkscape:version="0.48.4 r9939"
   sodipodi:docname="reply-all-symbolic.svg"><metadata
     id="metadata9"><rdf:RDF><cc:Work
         rdf:about=""><dc:format>image/svg+xml</dc:format><dc:type
           rdf:resource="http://purl.org/dc/dcmitype/StillImage" /><dc:title /></cc:Work></rdf:RDF></metadata><defs
     id="defs7" /><sodipodi:namedview
     pagecolor="#ffffff"
     bordercolor="#666666"
     borderopacity="1"
     objecttolerance="10"
     gridtolerance="10"
     guidetolerance="10"
     inkscape:pageopacity="0"
     inkscape:pageshadow="2"
     inkscape:window-width="1177"
     inkscape:window-height="766"
     id="namedview5"
     showgrid="false"
     inkscape:zoom="4.72"
     inkscape:cx="47.951201"
     inkscape:cy="57.020569"
     inkscape:window-x="2551"
     inkscape:window-y="220"
     inkscape:window-maximized="0"
     inkscape:current-layer="Layer_1" /><path
     d="m 55.074,19.967 c -1.919,0 -3.812,0.131 -5.664,0.379 L 47.546,2.5 22.857,33.585 53.395,58.469 51.085,36.371 c 0.421,-0.014 0.839,-0.041 1.264,-0.041 19.789,0 35.834,16.043 35.834,35.832 0,9.896 -4.009,18.854 -10.493,25.338 C 89.383,90.028 97.142,76.943 97.142,62.036 97.143,38.804 78.31,19.967 55.074,19.967 z"
     id="path3"
     style="fill:#bebebe;fill-opacity:1;stroke:none"
     inkscape:connector-curvature="0" /><path
     style="fill:#bebebe;fill-opacity:1;stroke:none"
     mask="none"
     d="M 25.814844,3.4757167 1.1273443,34.569467 l 30.5312497,24.875 c -0.51184,-4.700225 -0.52737,-6.593597 -0.875,-9.761622 L 10.370988,33.788217 C 28.729198,9.6091097 27.076287,13.146026 27.075437,13.146797 26.791137,10.328029 26.179704,7.0749067 25.814844,3.4757167 z"
     id="path3-8-2"
     inkscape:connector-curvature="0"
     sodipodi:nodetypes="ccccccc" /></svg>