<?xml version="1.0" encoding="UTF-8" standalone="no"?>
<svg
   xmlns:dc="http://purl.org/dc/elements/1.1/"
   xmlns:cc="http://creativecommons.org/ns#"
   xmlns:rdf="http://www.w3.org/1999/02/22-rdf-syntax-ns#"
   xmlns:svg="http://www.w3.org/2000/svg"
   xmlns="http://www.w3.org/2000/svg"
   xmlns:sodipodi="http://sodipodi.sourceforge.net/DTD/sodipodi-0.dtd"
   xmlns:inkscape="http://www.inkscape.org/namespaces/inkscape"
   version="1.1"
   id="Layer_1"
   x="0px"
   y="0px"
   width="100px"
   height="67px"
   viewBox="0 0 100 67"
   enable-background="new 0 0 100 67"
   xml:space="preserve"
   inkscape:version="0.48.4 r9939"
   sodipodi:docname="spam-symbolic.svg"><metadata
     id="metadata11"><rdf:RDF><cc:Work
         rdf:about=""><dc:format>image/svg+xml</dc:format><dc:type
           rdf:resource="http://purl.org/dc/dcmitype/StillImage" /></cc:Work></rdf:RDF></metadata><defs
     id="defs9" /><sodipodi:namedview
     pagecolor="#ffffff"
     bordercolor="#666666"
     borderopacity="1"
     objecttolerance="10"
     gridtolerance="10"
     guidetolerance="10"
     inkscape:pageopacity="0"
     inkscape:pageshadow="2"
     inkscape:window-width="1078"
     inkscape:window-height="607"
     id="namedview7"
     showgrid="false"
     inkscape:zoom="2.92"
     inkscape:cx="-13.013699"
     inkscape:cy="33.5"
     inkscape:window-x="0"
     inkscape:window-y="24"
     inkscape:window-maximized="0"
     inkscape:current-layer="Layer_1" /><circle
     fill="#000000"
     cx="86.75"
     cy="26.046"
     r="0.602"
     id="circle3" /><path
     fill="#000000"
     d="M99.97,29.455c-0.058-1.15-0.507-2.121-1.646-2.121c-0.475,0-1.995,0.453-3.346,0.252  c-1.376-0.203-2.584-1.066-3.186-1.527c-1.475-1.127-3.205-5.732-5.963-7.596c-0.536-0.363-1.584-1.057-2.022-1.531  c-0.459-0.498-0.616-1.324-0.616-1.982c0-0.742,0.235-1.418,0.625-2.041c0.952-1.527-1.81-1.701-2.713-1.701  c-1.558,0-3.032,0.592-4.482,1.102c-1.114,0.391-2.867,0.41-4.207-0.385c-1.697-1.01-3.093-2.506-4.714-3.647  c-1.743-1.228-3.594-2.302-5.515-3.228C55.61,1.877,48.262,0.412,40.982,0.412c-12.008,0-26.186,4.583-33.44,14.134  c-0.05,0.078-0.1,0.137-0.15,0.209c-0.092,0.125-0.18,0.25-0.27,0.377c-1.204,1.559-2.418,1.859-3.771,1.291  c-0.996-0.42-1.516-1.174-1.633-2.191c-0.159-1.393,0.717-2.27,1.832-2.35c1.251-0.09,2.071,0.777,2.031,1.713  c-0.016,0.365-0.292,0.918-0.996,1.115c-0.776,0.219-1.243-0.527-1.473-0.379c-0.181,0.115,0.139,0.896,0.617,1.115  c1.224,0.561,2.051,0.039,2.576-0.652c0.423-0.555,0.545-0.84,0.603-1.607c0.094-1.244-0.988-3.166-3.417-3.031  c-2.342,0.128-3.814,2.178-3.463,4.613c0.204,1.418,1.25,3.012,2.705,3.725c0.44,0.215,0.914,0.336,1.391,0.432  c0.971,0.197,0.465,0.789,0.21,1.365c-0.375,0.846-0.619,1.783-0.84,2.678c-0.467,1.891-0.688,3.838-0.688,5.787  c0,18.9,9.929,17.838,11.309,28.455c0.101,0.777,0.174,1.568,0.383,2.326c0.211,0.762,0.583,1.461,0.98,2.141  c0.398,0.68,0.822,1.344,1.246,2.01c0.548,0.857,1.061,2.035,1.989,2.543c0.653,0.359,1.225,0.338,1.943,0.34  c0.687,0.002,3.859-0.014,4.758-0.035c0.442-0.012,2.022,0.014,2.108-0.377c0.061-0.275-0.283-0.537-0.431-0.729  c-0.189-0.244-0.364-0.506-0.52-0.773c-0.336-0.576-0.592-1.195-0.796-1.83c-0.393-1.215-0.6-2.486-0.724-3.756  c-0.114-1.166-0.486-3.293,0.63-4.152c1.328-1.021,5.162,0.312,6.698,0.568c2.841,0.475,5.722,0.703,8.601,0.703  c1.854,0,3.708-0.096,5.552-0.289c0.942-0.098,1.889-0.211,2.822-0.375c0.638-0.113,1.741-0.203,2.4-0.234  c0.827-0.041,2.128,0.217,2.924,1.092c0.957,1.053,1.123,4.965,1.858,6.033c0.426,0.619,2.82,3.715,3.555,4.076  c0.213,0.104,0.563,0.062,0.791,0.072c0.555,0.02,1.11,0.021,1.666,0.023c1.396,0.004,2.791-0.01,4.187-0.023  c0.453-0.004,1.342,0.17,1.635-0.295c0.195-0.307-0.005-0.752-0.135-1.039c-0.202-0.449-0.398-0.904-0.562-1.369  c-3.553-10.064-0.133-14.666,6.437-15.24c1.574-0.139,3.405,0.1,5.774-0.104c5.137-0.438,9.74-6.35,10.841-7.299  c0.773-0.664,2.838-1.641,3.349-2.484c0.242-0.398,0.411-0.682,0.795-0.943c0.859-0.582,2.746-1.045,3.465-1.867  C99.758,34.304,100.029,30.595,99.97,29.455z M87.573,28.169c-0.484,0-0.876-0.393-0.876-0.875c0-0.484,0.392-0.877,0.876-0.877  s0.876,0.393,0.876,0.877C88.449,27.777,88.057,28.169,87.573,28.169z"
     id="path5"
     style="fill:#bebebe;fill-opacity:1" /></svg>