<?xml version="1.0" encoding="UTF-8" standalone="no"?>
<svg
   xmlns:dc="http://purl.org/dc/elements/1.1/"
   xmlns:cc="http://creativecommons.org/ns#"
   xmlns:rdf="http://www.w3.org/1999/02/22-rdf-syntax-ns#"
   xmlns:svg="http://www.w3.org/2000/svg"
   xmlns="http://www.w3.org/2000/svg"
   xmlns:sodipodi="http://sodipodi.sourceforge.net/DTD/sodipodi-0.dtd"
   xmlns:inkscape="http://www.inkscape.org/namespaces/inkscape"
   version="1.1"
   id="Your_Icon"
   x="0px"
   y="0px"
   width="100px"
   height="95.844px"
   viewBox="0 0 100 95.844"
   enable-background="new 0 0 100 95.844"
   xml:space="preserve"
   inkscape:version="0.48.4 r9939"
   sodipodi:docname="star-symbolic.svg"><metadata
     id="metadata9"><rdf:RDF><cc:Work
         rdf:about=""><dc:format>image/svg+xml</dc:format><dc:type
           rdf:resource="http://purl.org/dc/dcmitype/StillImage" /></cc:Work></rdf:RDF></metadata><defs
     id="defs7" /><sodipodi:namedview
     pagecolor="#ffffff"
     bordercolor="#666666"
     borderopacity="1"
     objecttolerance="10"
     gridtolerance="10"
     guidetolerance="10"
     inkscape:pageopacity="0"
     inkscape:pageshadow="2"
     inkscape:window-width="776"
     inkscape:window-height="620"
     id="namedview5"
     showgrid="false"
     inkscape:zoom="2.4623346"
     inkscape:cx="-24.725832"
     inkscape:cy="47.922001"
     inkscape:window-x="924"
     inkscape:window-y="278"
     inkscape:window-maximized="0"
     inkscape:current-layer="Your_Icon" /><path
     d="M92.44,38.392L92.44,38.392L92.44,38.392 M49.996,0c-3.272,0-6.18,2.109-7.187,5.225l-8.324,25.606H7.559  c-3.272,0-6.18,2.109-7.187,5.226c-1.016,3.111,0.096,6.522,2.743,8.449l21.787,15.833l-8.324,25.61  c-1.016,3.111,0.096,6.522,2.743,8.449c1.328,0.964,2.89,1.445,4.444,1.445c1.562,0,3.125-0.481,4.444-1.445l21.787-15.832  l21.787,15.832c1.319,0.964,2.882,1.445,4.444,1.445c1.554,0,3.116-0.481,4.444-1.445c2.647-1.927,3.758-5.338,2.743-8.454  L75.09,60.339l21.795-15.828c2.647-1.923,3.759-5.334,2.743-8.45s-3.915-5.226-7.188-5.226H65.507l-8.324-25.61  C56.167,2.109,53.268,0.004,49.996,0L49.996,0z"
     id="path3"
     style="fill:#bebebe;fill-opacity:1" /></svg>