<?xml version="1.0" encoding="UTF-8" standalone="no"?>
<!-- Created with Inkscape (http://www.inkscape.org/) -->

<svg
   xmlns:dc="http://purl.org/dc/elements/1.1/"
   xmlns:cc="http://creativecommons.org/ns#"
   xmlns:rdf="http://www.w3.org/1999/02/22-rdf-syntax-ns#"
   xmlns:svg="http://www.w3.org/2000/svg"
   xmlns="http://www.w3.org/2000/svg"
   xmlns:xlink="http://www.w3.org/1999/xlink"
   version="1.1"
   width="16"
   height="16"
   id="svg3279">
  <defs
     id="defs3281">
    <linearGradient
       x1="17.591623"
       y1="7"
       x2="17.591623"
       y2="-0.02451775"
       id="linearGradient2863"
       xlink:href="#linearGradient3251"
       gradientUnits="userSpaceOnUse"
       gradientTransform="matrix(0.6666711,0,0,0.6666711,-0.66667106,-1.3337988)" />
    <linearGradient
       id="linearGradient3251">
      <stop
         id="stop3253"
         style="stop-color:#917f6e;stop-opacity:1"
         offset="0" />
      <stop
         id="stop3255"
         style="stop-color:#cbbaa9;stop-opacity:1"
         offset="1" />
    </linearGradient>
    <linearGradient
       x1="40.006763"
       y1="12.910877"
       x2="40.006763"
       y2="7.0924568"
       id="linearGradient2866"
       xlink:href="#linearGradient4222"
       gradientUnits="userSpaceOnUse"
       gradientTransform="matrix(0.82996661,0,0,0.83014725,-23.704279,-4.8028556)" />
    <linearGradient
       id="linearGradient4222">
      <stop
         id="stop4224"
         style="stop-color:#ffffff;stop-opacity:1"
         offset="0" />
      <stop
         id="stop4226"
         style="stop-color:#ffffff;stop-opacity:0"
         offset="1" />
    </linearGradient>
    <linearGradient
       x1="38.382198"
       y1="5.90625"
       x2="38.382198"
       y2="22.697742"
       id="linearGradient2869"
       xlink:href="#linearGradient4222"
       gradientUnits="userSpaceOnUse"
       gradientTransform="matrix(0.63241105,0,0,0.63366331,-16.06917,-2.5594049)" />
    <linearGradient
       id="linearGradient3243">
      <stop
         id="stop3245"
         style="stop-color:#fff4e9;stop-opacity:1"
         offset="0" />
      <stop
         id="stop3247"
         style="stop-color:#e7d6c5;stop-opacity:1"
         offset="1" />
    </linearGradient>
    <linearGradient
       x1="39.905758"
       y1="6.1230369"
       x2="39.905758"
       y2="24.0341"
       id="linearGradient3275"
       xlink:href="#linearGradient3243"
       gradientUnits="userSpaceOnUse"
       gradientTransform="matrix(0.6666711,0,0,0.6666711,-17.166785,-3.1667713)" />
    <linearGradient
       x1="32.015705"
       y1="24.011269"
       x2="32.015705"
       y2="5"
       id="linearGradient3277"
       xlink:href="#linearGradient3251"
       gradientUnits="userSpaceOnUse"
       gradientTransform="matrix(0.6666711,0,0,0.6666711,-17.166785,-3.1667713)" />
    <linearGradient
       x1="17.591623"
       y1="7"
       x2="17.591623"
       y2="-0.02451775"
       id="linearGradient2863-0"
       xlink:href="#linearGradient3251-4"
       gradientUnits="userSpaceOnUse"
       gradientTransform="matrix(0.6666711,0,0,0.6666711,0.3333289,1.6662013)" />
    <linearGradient
       id="linearGradient3251-4">
      <stop
         id="stop3253-9"
         style="stop-color:#917f6e;stop-opacity:1"
         offset="0" />
      <stop
         id="stop3255-0"
         style="stop-color:#cbbaa9;stop-opacity:1"
         offset="1" />
    </linearGradient>
    <linearGradient
       x1="40.006763"
       y1="12.910877"
       x2="40.006763"
       y2="7.0924568"
       id="linearGradient2866-8"
       xlink:href="#linearGradient4222-5"
       gradientUnits="userSpaceOnUse"
       gradientTransform="matrix(0.82996661,0,0,0.83014725,-22.704279,-1.8028555)" />
    <linearGradient
       id="linearGradient4222-5">
      <stop
         id="stop4224-8"
         style="stop-color:#ffffff;stop-opacity:1"
         offset="0" />
      <stop
         id="stop4226-8"
         style="stop-color:#ffffff;stop-opacity:0"
         offset="1" />
    </linearGradient>
    <linearGradient
       x1="38.382198"
       y1="5.90625"
       x2="38.382198"
       y2="22.697742"
       id="linearGradient2869-1"
       xlink:href="#linearGradient4222-5"
       gradientUnits="userSpaceOnUse"
       gradientTransform="matrix(0.63241105,0,0,0.63366331,-15.06917,0.44059524)" />
    <linearGradient
       id="linearGradient3243-9">
      <stop
         id="stop3245-2"
         style="stop-color:#fff4e9;stop-opacity:1"
         offset="0" />
      <stop
         id="stop3247-1"
         style="stop-color:#e7d6c5;stop-opacity:1"
         offset="1" />
    </linearGradient>
    <linearGradient
       x1="39.905758"
       y1="6.1230369"
       x2="39.905758"
       y2="24.0341"
       id="linearGradient3056"
       xlink:href="#linearGradient3243-9"
       gradientUnits="userSpaceOnUse"
       gradientTransform="matrix(0.6666711,0,0,0.6666711,-16.166785,-0.16677116)" />
    <linearGradient
       x1="32.015705"
       y1="24.011269"
       x2="32.015705"
       y2="5"
       id="linearGradient3058"
       xlink:href="#linearGradient3251-4"
       gradientUnits="userSpaceOnUse"
       gradientTransform="matrix(0.6666711,0,0,0.6666711,-16.166785,-0.16677116)" />
  </defs>
  <metadata
     id="metadata3284">
    <rdf:RDF>
      <cc:Work
         rdf:about="">
        <dc:format>image/svg+xml</dc:format>
        <dc:type
           rdf:resource="http://purl.org/dc/dcmitype/StillImage" />
        <dc:title></dc:title>
      </cc:Work>
    </rdf:RDF>
  </metadata>
  <g
     id="layer1">
    <path
       d="M 6.8333755,0.49991904 0.50000006,7.062463 6.0000368,12.5 12.500078,6.166624 l 0,-5.66670496 -5.6667025,0 z M 9.5000604,2.499933 c 0.5520026,0 1.0000066,0.448002 1.0000066,1.000006 0,0.552004 -0.448004,1.000007 -1.0000066,1.000007 -0.5520042,0 -1.0000072,-0.448003 -1.0000072,-1.000007 0,-0.552004 0.448003,-1.000006 1.0000072,-1.000006 z"
       id="path2463"
       style="fill:url(#linearGradient3275);fill-opacity:1;fill-rule:evenodd;stroke:url(#linearGradient3277);stroke-width:1.00000012px;stroke-linecap:butt;stroke-linejoin:miter;stroke-opacity:1" />
    <path
       d="m 7.3435443,1.5000002 c 0,0 -5.4055851,5.4975779 -5.4055851,5.4975779 0,0 4.1443391,4.3564349 4.1443391,4.3564349 0,0 5.3593077,-5.5623318 5.3593077,-5.5623318 0,0 0.05839,-4.291681 0.05839,-4.291681 0,0 -4.1564557,0 -4.1564557,0 z"
       id="path3265"
       style="opacity:0.6;fill:none;stroke:url(#linearGradient2869);stroke-width:1.00000012px;stroke-linecap:butt;stroke-linejoin:miter;stroke-opacity:1" />
    <path
       d="M 9.4943871,1.5010734 C 10.750366,1.4567936 11.785978,2.790953 11.428498,3.997178 11.163042,5.1808173 9.7058904,5.8629498 8.6294138,5.2988448 7.5214098,4.8093156 7.1351849,3.2507988 7.8946109,2.304299 8.263526,1.804975 8.8728487,1.4962644 9.4943871,1.5010734 z"
       id="path3294"
       style="opacity:0.6;fill:none;stroke:url(#linearGradient2866);stroke-width:1.00000012px;stroke-linecap:butt;stroke-linejoin:miter;stroke-opacity:1" />
    <path
       d="m 13.500078,2.499919 -5.6667025,0 -6.3333754,6.5625439"
       id="path2463-3-7"
       style="opacity:0.1;fill:none;stroke:#000000;stroke-width:1.00000012px;stroke-linecap:butt;stroke-linejoin:miter;stroke-opacity:1" />
    <path
       d="m 10.333402,2.9995632 c 0.73935,-0.391482 1.702694,-0.511416 2.617932,-0.53183 0.411434,-0.0092 0.8273,0.0746 1.231029,-0.02143 0.513831,-0.122222 0.863993,-0.498679 0.812771,-0.842839 -0.06877,-0.461979 -0.68935,-0.80302096 -1.271382,-1.04707196 -0.516276,-0.216476 -0.913636,-0.60223516 -1.123633,-1.00974656 -0.106098,-0.20589 0.07919,-0.4220767 0.376399,-0.4884432 0.269998,-0.060291 0.552791,-0.084123 0.827535,-0.022904 0.418164,0.093175 0.911794,0.2068481 1.106321,0.5031098"
       id="path3298"
       style="fill:none;stroke:url(#linearGradient2863);stroke-width:1px;stroke-linecap:butt;stroke-linejoin:miter;stroke-opacity:1" />
    <path
       d="M 7.8333755,3.4999191 1.5000001,10.062463 7.0000368,15.5 13.500078,9.1666241 l 0,-5.666705 -5.6667025,0 z m 2.6666845,2.000014 c 0.552003,0 1.000007,0.448002 1.000007,1.000006 0,0.552004 -0.448004,1.000007 -1.000007,1.000007 -0.552004,0 -1.000007,-0.448003 -1.000007,-1.000007 0,-0.552004 0.448003,-1.000006 1.000007,-1.000006 z"
       id="path2463-3"
       style="fill:url(#linearGradient3056);fill-opacity:1;fill-rule:evenodd;stroke:url(#linearGradient3058);stroke-width:1.00000012px;stroke-linecap:butt;stroke-linejoin:miter;stroke-opacity:1" />
    <path
       d="m 8.343544,4.5000003 c 0,0 -5.4055848,5.4975779 -5.4055848,5.4975779 0,0 4.1443391,4.3564348 4.1443391,4.3564348 0,0 5.3593077,-5.5623317 5.3593077,-5.5623317 0,0 0.05839,-4.291681 0.05839,-4.291681 0,0 -4.156456,0 -4.156456,0 z"
       id="path3265-6"
       style="opacity:0.6;fill:none;stroke:url(#linearGradient2869-1);stroke-width:1.00000012px;stroke-linecap:butt;stroke-linejoin:miter;stroke-opacity:1" />
    <path
       d="m 10.494387,4.5010735 c 1.255979,-0.04428 2.291591,1.2898796 1.934111,2.4961046 C 12.163042,8.1808174 10.70589,8.8629499 9.629414,8.2988449 8.52141,7.8093157 8.135185,6.2507989 8.894611,5.3042991 9.263526,4.8049751 9.872849,4.4962645 10.494387,4.5010735 z"
       id="path3294-1"
       style="opacity:0.6;fill:none;stroke:url(#linearGradient2866-8);stroke-width:1.00000012px;stroke-linecap:butt;stroke-linejoin:miter;stroke-opacity:1" />
    <path
       d="m 11.333402,5.9995633 c 0.73935,-0.391482 1.702694,-0.511416 2.617932,-0.53183 0.411434,-0.0092 0.8273,0.0746 1.231029,-0.02143 0.513831,-0.122222 0.863993,-0.498679 0.812771,-0.842839 -0.06877,-0.461979 -0.68935,-0.803021 -1.271382,-1.047072 -0.516276,-0.216476 -0.913636,-0.6022352 -1.123633,-1.0097466 -0.106098,-0.20589 0.07919,-0.4220767 0.376399,-0.4884432 0.269998,-0.060291 0.552791,-0.084123 0.827535,-0.022904 0.418164,0.093175 0.911794,0.2068481 1.106321,0.5031098"
       id="path3298-3"
       style="fill:none;stroke:url(#linearGradient2863-0);stroke-width:1px;stroke-linecap:butt;stroke-linejoin:miter;stroke-opacity:1" />
  </g>
</svg>
