<svg xmlns="http://www.w3.org/2000/svg" xmlns:xlink="http://www.w3.org/1999/xlink" width="16" height="16"><defs><clipPath id="b"><path d="M0 0h192v152H0z"/></clipPath><clipPath id="c"><path d="M0 0h192v152H0z"/></clipPath><mask id="e"><g filter="url(#a)"><path fill-opacity=".1" d="M0 0h16v16H0z"/></g></mask><mask id="g"><g filter="url(#a)"><path fill-opacity=".3" d="M0 0h16v16H0z"/></g></mask><g id="d" clip-path="url(#b)"><path d="M91 116l8-13H45l8.004 13zm0 0" fill-rule="evenodd"/></g><g id="f" clip-path="url(#c)"><path d="M44 100h56v2H44zm0 0" fill="#fff"/></g><filter id="a" filterUnits="objectBoundingBox" x="0%" y="0%" width="100%" height="100%"><feColorMatrix in="SourceGraphic" values="0 0 0 0 1 0 0 0 0 1 0 0 0 0 1 0 0 0 1 0"/></filter></defs><path d="M14 6c0 3.313-2.688 6-6 6-3.313 0-6-2.688-6-6 0-3.313 2.688-6 6-6 3.313 0 6 2.688 6 6zm0 0M6 14h4v2H6zm0 0" fill="#3d3846"/><path d="M10 14l3-5h-1l-3 5zm0 0M6 14L3 9h1l3 5zm0 0" fill="#3d3846"/><use xlink:href="#d" transform="translate(-168 -16)" mask="url(#e)"/><use xlink:href="#f" transform="translate(-168 -16)" mask="url(#g)"/></svg>