<svg xmlns="http://www.w3.org/2000/svg" xmlns:xlink="http://www.w3.org/1999/xlink" width="128" height="128"><defs><clipPath id="b"><path d="M0 0h192v152H0z"/></clipPath><clipPath id="c"><path d="M0 0h192v152H0z"/></clipPath><clipPath id="o"><path d="M0 0h128v128H0z"/></clipPath><clipPath id="f"><path d="M0 0h128v128H0z"/></clipPath><clipPath id="r"><path d="M0 0h128v128H0z"/></clipPath><clipPath id="t"><path d="M0 0h128v128H0z"/></clipPath><clipPath id="d"><path d="M0 0h192v152H0z"/></clipPath><clipPath id="e"><path d="M0 0h192v152H0z"/></clipPath><mask id="j"><g filter="url(#a)"><path fill-opacity=".1" d="M0 0h128v128H0z"/></g></mask><mask id="A"><g filter="url(#a)"><path fill-opacity=".3" d="M0 0h128v128H0z"/></g></mask><mask id="y"><g filter="url(#a)"><path fill-opacity=".1" d="M0 0h128v128H0z"/></g></mask><mask id="v"><g filter="url(#a)"><path fill-opacity=".8" d="M0 0h128v128H0z"/></g></mask><mask id="m"><g filter="url(#a)"><path fill-opacity=".3" d="M0 0h128v128H0z"/></g></mask><mask id="D"><use xlink:href="#q"/></mask><g id="u" clip-path="url(#r)"><path d="M128 80.64V128H0V80.64zm0 0" fill="url(#s)"/><path d="M13.309 80.64L60.664 128H81.88l-47.36-47.36zm42.421 0L103.094 128h21.215L76.945 80.64zm42.43 0L128 110.48V89.27l-8.629-8.63zM0 88.548v21.215L18.238 128h21.215zm0 0"/></g><g id="p" clip-path="url(#f)"><path d="M77 88l-5 22" fill="none" stroke-width="2" stroke="#77767b"/><path d="M64 4c-12.355.09-24.879 4.074-34.176 12.215-4.652 4.066-8.449 9.133-10.898 14.805C16.48 36.695 15.402 42.977 16 49.125c.695 7.16 3.594 13.941 7.207 20.16a90.703 90.703 0 0014.398 18.7L44.395 100h37.96L91 87a114.167 114.167 0 0013.125-17.648c3.766-6.243 6.977-12.993 7.875-20.227.766-6.168-.207-12.52-2.613-18.254-2.403-5.734-6.219-10.848-10.907-14.93C89.105 7.773 76.434 3.911 64 4zm0 0" fill="url(#g)"/><path d="M65.262 4.016c-17.219 2.597-33.532 8.3-40.848 28.23C17.81 56.95 28.074 68.863 41.09 88l5.851 12.008h7.922C49.938 85.496 37.777 60.34 37.777 47.703c0-37.058 27.282-43.558 27.485-43.687zm.004 0c.07.187 8.511 17.238 8.507 43.687 0 13.957-1.949 38.047-3.847 52.305H80c24.254-43.512 32.934-82.988-14.734-95.992zm0 0" fill="url(#h)"/><use xlink:href="#i" transform="translate(-8 -16)" mask="url(#j)"/><path d="M52 86l5 23" fill="none" stroke-width="2" stroke="#c0bfbc"/><path d="M80 110v11.316a4.666 4.666 0 01-4.676 4.676H52.676A4.666 4.666 0 0148 121.316V110zm0 0" fill="#c64600"/><path d="M37.457 86.395L49.562 109" fill="none" stroke-width="2" stroke="#9a9996"/><path d="M36 84v2s0 2 1.871 2H90.13C92 88 92 86 92 86v-2zm0 0" fill="url(#k)"/><use xlink:href="#l" transform="translate(-8 -16)" mask="url(#m)"/><path d="M90.5 87l-12.063 22" fill="none" stroke-width="2" stroke="#77767b"/><path d="M80 108v11.316a4.666 4.666 0 01-4.676 4.676H52.676A4.666 4.666 0 0148 119.316V108zm0 0" fill="url(#n)"/></g><g id="l" clip-path="url(#c)"><path d="M44 100h56v2H44zm0 0" fill="#fff"/></g><g id="q" clip-path="url(#o)" filter="url(#a)"><use xlink:href="#p"/></g><g id="i" clip-path="url(#b)"><path d="M91 116l8-13H45l8.004 13zm0 0" fill-rule="evenodd"/></g><g id="C" clip-path="url(#t)"><use xlink:href="#u" mask="url(#v)"/></g><linearGradient id="s" gradientUnits="userSpaceOnUse" x1="300" y1="235" x2="428" y2="235" gradientTransform="matrix(0 .37 -.98462 0 295.385 -30.36)"><stop offset="0" stop-color="#f9f06b"/><stop offset="1" stop-color="#f5c211"/></linearGradient><linearGradient id="k" gradientUnits="userSpaceOnUse" x1="46" y1="104" x2="96.377" y2="104" gradientTransform="translate(-8 -18)"><stop offset="0" stop-color="#9a9996"/><stop offset=".278" stop-color="#c0bfbc"/><stop offset=".774" stop-color="#9f9e9b"/><stop offset="1" stop-color="#77767b"/></linearGradient><linearGradient id="B" gradientUnits="userSpaceOnUse" x1="54" y1="284" x2="66" y2="284" gradientTransform="translate(0 -172)"><stop offset="0" stop-color="#c64600"/><stop offset="1" stop-color="#ff7800"/></linearGradient><linearGradient id="n" gradientUnits="userSpaceOnUse" x1="54" y1="284" x2="66" y2="284" gradientTransform="translate(0 -172)"><stop offset="0" stop-color="#c64600"/><stop offset="1" stop-color="#ff7800"/></linearGradient><linearGradient id="z" gradientUnits="userSpaceOnUse" x1="46" y1="104" x2="96.377" y2="104" gradientTransform="translate(-8 -18)"><stop offset="0" stop-color="#9a9996"/><stop offset=".278" stop-color="#c0bfbc"/><stop offset=".774" stop-color="#9f9e9b"/><stop offset="1" stop-color="#77767b"/></linearGradient><radialGradient id="x" gradientUnits="userSpaceOnUse" cx="64" cy="209.913" fx="64" fy="209.913" r="41.212" gradientTransform="matrix(1.55293 0 0 1.31029 -35.388 -243.047)"><stop offset="0" stop-color="#fff"/><stop offset=".519" stop-color="#fff"/><stop offset=".734" stop-color="#cfcfcf"/><stop offset="1" stop-color="#cecece"/></radialGradient><radialGradient id="h" gradientUnits="userSpaceOnUse" cx="64" cy="209.913" fx="64" fy="209.913" r="41.212" gradientTransform="matrix(1.55293 0 0 1.31029 -35.388 -243.047)"><stop offset="0" stop-color="#fff"/><stop offset=".519" stop-color="#fff"/><stop offset=".734" stop-color="#cfcfcf"/><stop offset="1" stop-color="#cecece"/></radialGradient><radialGradient id="g" gradientUnits="userSpaceOnUse" cx="64" cy="203.706" fx="64" fy="203.706" r="48" gradientTransform="matrix(1 0 0 .98499 0 -168.648)"><stop offset="0" stop-color="#ed686f"/><stop offset=".833" stop-color="#a51d2d"/><stop offset="1" stop-color="#8a1f24"/></radialGradient><radialGradient id="w" gradientUnits="userSpaceOnUse" cx="64" cy="203.706" fx="64" fy="203.706" r="48" gradientTransform="matrix(1 0 0 .98499 0 -168.648)"><stop offset="0" stop-color="#ed686f"/><stop offset=".833" stop-color="#a51d2d"/><stop offset="1" stop-color="#8a1f24"/></radialGradient><filter id="a" filterUnits="objectBoundingBox" x="0%" y="0%" width="100%" height="100%"><feColorMatrix in="SourceGraphic" values="0 0 0 0 1 0 0 0 0 1 0 0 0 0 1 0 0 0 1 0"/></filter></defs><path d="M77 88l-5 22" fill="none" stroke-width="2" stroke="#77767b"/><path d="M64 4c-12.355.09-24.879 4.074-34.176 12.215-4.652 4.066-8.449 9.133-10.898 14.805C16.48 36.695 15.402 42.977 16 49.125c.695 7.16 3.594 13.941 7.207 20.16a90.703 90.703 0 0014.398 18.7L44.395 100h37.96L91 87a114.167 114.167 0 0013.125-17.648c3.766-6.243 6.977-12.993 7.875-20.227.766-6.168-.207-12.52-2.613-18.254-2.403-5.734-6.219-10.848-10.907-14.93C89.105 7.773 76.434 3.911 64 4zm0 0" fill="url(#w)"/><path d="M65.262 4.016c-17.219 2.597-33.532 8.3-40.848 28.23C17.81 56.95 28.074 68.863 41.09 88l5.851 12.008h7.922C49.938 85.496 37.777 60.34 37.777 47.703c0-37.058 27.282-43.558 27.485-43.687zm.004 0c.07.187 8.511 17.238 8.507 43.687 0 13.957-1.949 38.047-3.847 52.305H80c24.254-43.512 32.934-82.988-14.734-95.992zm0 0" fill="url(#x)"/><use xlink:href="#i" transform="translate(-8 -16)" mask="url(#y)"/><path d="M52 86l5 23" fill="none" stroke-width="2" stroke="#c0bfbc"/><path d="M80 110v11.316a4.666 4.666 0 01-4.676 4.676H52.676A4.666 4.666 0 0148 121.316V110zm0 0" fill="#c64600"/><path d="M37.457 86.395L49.562 109" fill="none" stroke-width="2" stroke="#9a9996"/><path d="M36 84v2s0 2 1.871 2H90.13C92 88 92 86 92 86v-2zm0 0" fill="url(#z)"/><use xlink:href="#l" transform="translate(-8 -16)" mask="url(#A)"/><path d="M90.5 87l-12.063 22" fill="none" stroke-width="2" stroke="#77767b"/><path d="M80 108v11.316a4.666 4.666 0 01-4.676 4.676H52.676A4.666 4.666 0 0148 119.316V108zm0 0" fill="url(#B)"/><use xlink:href="#C" mask="url(#D)"/></svg>