<svg xmlns="http://www.w3.org/2000/svg" width="1200" height="600"><defs><clipPath clipPathUnits="userSpaceOnUse" id="a"><path d="M228.46 29.202h833.574V319.49c-330.237 0-408.683 175.77-833.574 175.77z" style="marker:none" color="#000" overflow="visible" fill="#babdb6"/></clipPath><clipPath clipPathUnits="userSpaceOnUse" id="b"><path style="marker:none" color="#bebebe" overflow="visible" fill="#bebebe" stroke-width="2" d="M26.85 220.75h3.825v6.375H26.85z"/></clipPath><clipPath clipPathUnits="userSpaceOnUse" id="c"><path style="marker:none" color="#bebebe" overflow="visible" fill="#bebebe" stroke-width="2" d="M26.966 221.33h2.898v5.216h-2.898z"/></clipPath><clipPath clipPathUnits="userSpaceOnUse" id="d"><path style="marker:none" color="#bebebe" overflow="visible" fill="#bebebe" stroke-width="2" d="M26.999 221.502h1.876v4.873h-1.876z"/></clipPath></defs><g transform="matrix(2 0 0 2 149.175 -260.804)"><g clip-path="url(#a)" transform="matrix(.59339 0 0 .59339 -153.475 115.364)"><g transform="matrix(4 0 0 4 172 -591)"><path style="marker:none" color="#bebebe" overflow="visible" fill="none" d="M20 276h16v16H20z"/><rect style="marker:none" width="2" height="2" x="23.062" y="279" rx=".385" ry=".379" color="#000" overflow="visible"/><rect ry=".379" rx=".385" y="279" x="27.062" height="2" width="2" style="marker:none" color="#000" overflow="visible"/><rect style="marker:none" width="2" height="2" x="31.062" y="279" rx=".385" ry=".379" color="#000" overflow="visible"/><rect ry=".379" rx=".385" y="283.016" x="23.062" height="2" width="2" style="marker:none" color="#000" overflow="visible"/><rect style="marker:none" width="2" height="2" x="27.062" y="283.016" rx=".385" ry=".379" color="#000" overflow="visible"/><rect ry=".379" rx=".385" y="283.016" x="31.062" height="2" width="2" style="marker:none" color="#000" overflow="visible"/><rect style="marker:none" width="2" height="2" x="23.062" y="287" rx=".385" ry=".379" color="#000" overflow="visible"/><rect ry=".379" rx=".385" y="287" x="27.062" height="2" width="2" style="marker:none" color="#000" overflow="visible"/><rect style="marker:none" width="2" height="2" x="31.062" y="287" rx=".385" ry=".379" color="#000" overflow="visible"/></g><path style="marker:none" d="M239.06 57.414h800.88V108.9s-4.029-10.606-11.1-10.96L249 99c-4.596-.354-9.94 5.5-9.94 5.5z" color="#000" overflow="visible" fill="#fff"/><path style="marker:none" color="#000" overflow="visible" fill="#fff" stroke="#3584e4" stroke-width="3.372" d="M240.001 58.15h800.743v599.998H240.001z"/><path d="M1039.199 109.003c0-5.898-4.781-10.68-10.68-10.68H250.52c-5.898 0-10.68 4.782-10.68 10.68" fill="none" stroke="#3584e4" stroke-width="2.373" stroke-linecap="round"/><text y="86.187" x="628.846" style="line-height:0%;-inkscape-font-specification:'Cantarell Bold';text-align:center" font-weight="700" font-family="Cantarell" letter-spacing="0" word-spacing="0" text-anchor="middle" fill="#3584e4" transform="translate(11)"><tspan style="line-height:1.25" y="86.187" x="628.846" font-size="21.262">14:30</tspan></text><text y="86.187" x="238.059" style="line-height:0%;-inkscape-font-specification:'Cantarell Bold';text-align:start" font-weight="700" font-family="Cantarell" letter-spacing="0" word-spacing="0" fill="#3584e4" transform="translate(11)"><tspan style="line-height:1.25" y="86.187" x="238.059" font-size="21.262">Activities</tspan></text><path style="marker:none" color="#000" overflow="visible" opacity=".706" fill="none" d="M733.912 129.896h32.362v32.362h-32.362z"/></g><g fill="#3584e4"><path style="marker:none" d="M414.764 160.011h1.993l2.383-2.407.439.012v8.827h-.382l-2.44-2.42h-1.993z" color="#bebebe" overflow="visible"/><path style="line-height:normal;font-variant-ligatures:normal;font-variant-position:normal;font-variant-caps:normal;font-variant-numeric:normal;font-variant-alternates:normal;font-feature-settings:normal;text-indent:0;text-align:start;text-decoration-line:none;text-decoration-style:solid;text-decoration-color:#000;text-transform:none;text-orientation:mixed;white-space:normal;shape-padding:0;isolation:auto;mix-blend-mode:normal;solid-color:#000;solid-opacity:1" d="M27.178 220.396a1.275 1.275 0 00-.889 2.19 1.91 1.91 0 010 2.703 1.276 1.276 0 101.805 1.805 4.466 4.466 0 000-6.313 1.275 1.275 0 00-.916-.385z" clip-path="url(#b)" transform="matrix(.62939 0 0 .62939 403.482 21.074)" color="#000" font-weight="400" font-family="sans-serif" overflow="visible"/><path style="line-height:normal;font-variant-ligatures:normal;font-variant-position:normal;font-variant-caps:normal;font-variant-numeric:normal;font-variant-alternates:normal;font-feature-settings:normal;text-indent:0;text-align:start;text-decoration-line:none;text-decoration-style:solid;text-decoration-color:#000;text-transform:none;text-orientation:mixed;white-space:normal;shape-padding:0;isolation:auto;mix-blend-mode:normal;solid-color:#000;solid-opacity:1" d="M27.186 221.098a.58.58 0 00-.405.996 2.606 2.606 0 010 3.687.58.58 0 10.82.82 3.769 3.769 0 000-5.328.58.58 0 00-.415-.175z" clip-path="url(#c)" transform="matrix(1.38465 0 0 1.38465 384.648 -148.058)" color="#000" font-weight="400" font-family="sans-serif" overflow="visible"/><path style="line-height:normal;font-variant-ligatures:normal;font-variant-position:normal;font-variant-caps:normal;font-variant-numeric:normal;font-variant-alternates:normal;font-feature-settings:normal;text-indent:0;text-align:start;text-decoration-line:none;text-decoration-style:solid;text-decoration-color:#000;text-transform:none;text-orientation:mixed;white-space:normal;shape-padding:0;isolation:auto;mix-blend-mode:normal;solid-color:#000;solid-opacity:1" d="M27.188 221.305a.375.375 0 00-.262.644 2.811 2.811 0 010 3.977.376.376 0 10.531.531 3.564 3.564 0 000-5.039.375.375 0 00-.27-.113z" clip-path="url(#d)" transform="matrix(2.13992 0 0 2.13992 365.813 -317.189)" color="#000" font-weight="400" font-family="sans-serif" overflow="visible" opacity=".35"/><path style="line-height:normal;font-variant-ligatures:normal;font-variant-position:normal;font-variant-caps:normal;font-variant-numeric:normal;font-variant-alternates:normal;font-feature-settings:normal;text-indent:0;text-align:start;text-decoration-line:none;text-decoration-style:solid;text-decoration-color:#000;text-transform:none;text-orientation:mixed;white-space:normal;shape-padding:0;isolation:auto;mix-blend-mode:normal;solid-color:#000;solid-opacity:1;marker:none" d="M434.857 157.443a.803.803 0 00-.437.113 5.625 5.625 0 00-2.613 6.315 5.624 5.624 0 005.418 4.164 5.622 5.622 0 005.429-4.147 5.626 5.626 0 00-2.595-6.323.803.803 0 10-.807 1.386 4.007 4.007 0 011.853 4.516 4.004 4.004 0 01-3.878 2.964 4.004 4.004 0 01-3.868-2.974 4.006 4.006 0 011.865-4.512.803.803 0 00-.367-1.502z" color="#000" font-weight="400" font-family="sans-serif" overflow="visible"/><path style="line-height:normal;font-variant-ligatures:normal;font-variant-position:normal;font-variant-caps:normal;font-variant-numeric:normal;font-variant-alternates:normal;font-feature-settings:normal;text-indent:0;text-align:start;text-decoration-line:none;text-decoration-style:solid;text-decoration-color:#000;text-transform:none;text-orientation:mixed;white-space:normal;shape-padding:0;isolation:auto;mix-blend-mode:normal;solid-color:#000;solid-opacity:1" d="M437.22 155.987a.803.803 0 00-.79.815v4.012a.803.803 0 101.605 0v-4.012a.803.803 0 00-.815-.815z" color="#000" font-weight="400" font-family="sans-serif" overflow="visible"/><path style="line-height:normal;-inkscape-font-specification:Sans;text-indent:0;text-align:start;text-decoration-line:none;text-transform:none;marker:none" d="M400.177 156.867a1.42 1.42 0 00-1.404 1.405v3.61c0 .765.64 1.405 1.404 1.405h.1l-.627 1.254-.576 1.154H406.496l-.576-1.154-.627-1.254h.1a1.42 1.42 0 001.404-1.404v-3.611a1.42 1.42 0 00-1.404-1.405zm.2 1.605h4.815v3.21h-4.815z" color="#bebebe" font-weight="400" font-family="Sans" overflow="visible"/><path style="line-height:normal;font-variant-ligatures:normal;font-variant-position:normal;font-variant-caps:normal;font-variant-numeric:normal;font-variant-alternates:normal;font-feature-settings:normal;text-indent:0;text-align:start;text-decoration-line:none;text-decoration-style:solid;text-decoration-color:#000;text-transform:none;text-orientation:mixed;white-space:normal;shape-padding:0;isolation:auto;mix-blend-mode:normal;solid-color:#000;solid-opacity:1;marker:none" d="M401.982 164.09v3.21h1.606v-3.21zM397.97 167.3v1.604h9.63V167.3z" color="#bebebe" font-weight="400" font-family="sans-serif" overflow="visible"/><path d="M454.973 162.753l-3.01 3.009-3.008-3.01z" style="marker:none" color="#000" overflow="visible"/></g><rect style="marker:none" width="43.5" height="3" x="204.412" y="171.402" rx="0" ry="0" fill="#3584e4"/></g><path style="marker:none" d="M1078.75 348.293c-392.31 0-446.745 209.414-951.5 209.414" color="#000" overflow="visible" fill="none" stroke="#3584e4" stroke-dasharray="2,4"/><path d="M605.122 97.878L585 118H412.135a17.461 17.461 0 00-17.505 17.505V522.6c0 9.702 7.803 17.56 17.505 17.56H802.51c9.702 0 17.56-7.858 17.56-17.56V135.505c0-9.702-7.858-17.505-17.56-17.505H625.19z" style="marker:none" color="#000" overflow="visible" fill="#3584e4"/></svg>