<?xml version="1.0" encoding="UTF-8" standalone="no"?>
<!-- Created with Inkscape (http://www.inkscape.org/) -->

<svg
   xmlns:dc="http://purl.org/dc/elements/1.1/"
   xmlns:cc="http://creativecommons.org/ns#"
   xmlns:rdf="http://www.w3.org/1999/02/22-rdf-syntax-ns#"
   xmlns:svg="http://www.w3.org/2000/svg"
   xmlns="http://www.w3.org/2000/svg"
   xmlns:sodipodi="http://sodipodi.sourceforge.net/DTD/sodipodi-0.dtd"
   xmlns:inkscape="http://www.inkscape.org/namespaces/inkscape"
   width="603.15912"
   height="329.5"
   viewBox="0 0 159.58585 87.180206"
   version="1.1"
   id="svg3660"
   inkscape:version="0.92.4 (unknown)"
   sodipodi:docname="search.svg">
  <defs
     id="defs3654">
    <clipPath
       clipPathUnits="userSpaceOnUse"
       id="clipPath56767">
      <path
         sodipodi:nodetypes="ccccc"
         inkscape:connector-curvature="0"
         id="path56769"
         d="M 228.45991,29.202459 H 1062.0337 V 319.48853 c -330.23641,0 -408.68316,175.76954 -833.57379,175.76954 z"
         style="color:#000000;display:inline;overflow:visible;visibility:visible;fill:#babdb6;stroke:none;stroke-width:1;marker:none;enable-background:accumulate" />
    </clipPath>
    <linearGradient
       id="linearGradient5716-3-1-9">
      <stop
         style="stop-color:#000000;stop-opacity:1;"
         offset="0"
         id="stop5718-0-3-4" />
      <stop
         style="stop-color:#484848;stop-opacity:1;"
         offset="1"
         id="stop5720-0-39-8" />
    </linearGradient>
    <clipPath
       clipPathUnits="userSpaceOnUse"
       id="clipPath6279-7-9-7-97-8">
      <rect
         style="color:#bebebe;display:inline;overflow:visible;visibility:visible;fill:#bebebe;fill-opacity:1;fill-rule:nonzero;stroke:none;stroke-width:2;marker:none"
         id="rect6281-1-9-2-7-4"
         width="3.8250003"
         height="6.3750005"
         x="26.85"
         y="220.75" />
    </clipPath>
    <clipPath
       clipPathUnits="userSpaceOnUse"
       id="clipPath6265-3-4-4-6-1">
      <rect
         style="color:#bebebe;display:inline;overflow:visible;visibility:visible;fill:#bebebe;fill-opacity:1;fill-rule:nonzero;stroke:none;stroke-width:2;marker:none"
         id="rect6267-1-9-2-7-4"
         width="2.8977277"
         height="5.21591"
         x="26.96591"
         y="221.32954" />
    </clipPath>
    <clipPath
       clipPathUnits="userSpaceOnUse"
       id="clipPath6259-8-81-2-3-7">
      <rect
         style="color:#bebebe;display:inline;overflow:visible;visibility:visible;fill:#bebebe;fill-opacity:1;stroke:none;stroke-width:2;marker:none"
         id="rect6261-6-6-2-6-1"
         width="1.8762827"
         height="4.8734746"
         x="26.998718"
         y="221.50153" />
    </clipPath>
    <clipPath
       clipPathUnits="userSpaceOnUse"
       id="clipPath56767-9">
      <path
         sodipodi:nodetypes="ccccc"
         inkscape:connector-curvature="0"
         id="path56769-1"
         d="M 228.45991,29.202459 H 1062.0337 V 319.48853 c -330.23641,0 -408.68316,175.76954 -833.57379,175.76954 z"
         style="color:#000000;display:inline;overflow:visible;visibility:visible;fill:#babdb6;stroke:none;stroke-width:1;marker:none;enable-background:accumulate" />
    </clipPath>
    <clipPath
       clipPathUnits="userSpaceOnUse"
       id="clipPath6279-7-9-7-97">
      <rect
         style="color:#bebebe;display:inline;overflow:visible;visibility:visible;fill:#bebebe;fill-opacity:1;fill-rule:nonzero;stroke:none;stroke-width:2;marker:none"
         id="rect6281-1-9-2-7"
         width="3.8250003"
         height="6.3750005"
         x="26.85"
         y="220.75" />
    </clipPath>
    <clipPath
       clipPathUnits="userSpaceOnUse"
       id="clipPath6265-3-4-4-6">
      <rect
         style="color:#bebebe;display:inline;overflow:visible;visibility:visible;fill:#bebebe;fill-opacity:1;fill-rule:nonzero;stroke:none;stroke-width:2;marker:none"
         id="rect6267-1-9-2-7"
         width="2.8977277"
         height="5.21591"
         x="26.96591"
         y="221.32954" />
    </clipPath>
    <clipPath
       clipPathUnits="userSpaceOnUse"
       id="clipPath6259-8-81-2-3">
      <rect
         style="color:#bebebe;display:inline;overflow:visible;visibility:visible;fill:#bebebe;fill-opacity:1;stroke:none;stroke-width:2;marker:none"
         id="rect6261-6-6-2-6"
         width="1.8762827"
         height="4.8734746"
         x="26.998718"
         y="221.50153" />
    </clipPath>
    <clipPath
       clipPathUnits="userSpaceOnUse"
       id="clipPath987-6">
      <circle
         r="60"
         cy="236"
         cx="63.999996"
         id="circle989-3"
         style="display:inline;opacity:1;fill:#3584e4;fill-opacity:1;stroke:none;stroke-width:4.28571415;stroke-linecap:butt;stroke-linejoin:miter;stroke-miterlimit:4;stroke-dasharray:none;stroke-dashoffset:0;stroke-opacity:1;marker:none;marker-start:none;marker-mid:none;marker-end:none;paint-order:normal;enable-background:new" />
    </clipPath>
  </defs>
  <sodipodi:namedview
     id="base"
     pagecolor="#e5e5e5"
     bordercolor="#666666"
     borderopacity="1.0"
     inkscape:pageopacity="1"
     inkscape:pageshadow="2"
     inkscape:zoom="1"
     inkscape:cx="75.579553"
     inkscape:cy="205.89285"
     inkscape:document-units="px"
     inkscape:current-layer="layer1"
     showgrid="false"
     fit-margin-top="0"
     fit-margin-left="0"
     fit-margin-right="0"
     fit-margin-bottom="0"
     units="px"
     inkscape:showpageshadow="false"
     borderlayer="true"
     inkscape:window-width="1920"
     inkscape:window-height="1086"
     inkscape:window-x="0"
     inkscape:window-y="27"
     inkscape:window-maximized="1" />
  <metadata
     id="metadata3657">
    <rdf:RDF>
      <cc:Work
         rdf:about="">
        <dc:format>image/svg+xml</dc:format>
        <dc:type
           rdf:resource="http://purl.org/dc/dcmitype/StillImage" />
        <dc:title></dc:title>
      </cc:Work>
    </rdf:RDF>
  </metadata>
  <g
     inkscape:label="Layer 1"
     inkscape:groupmode="layer"
     id="layer1"
     transform="translate(82.06078,-114.31466)">
    <g
       transform="translate(-1078.3466,55.456551)"
       id="g4554">
      <g
         transform="matrix(0.26458333,0,0,0.26458333,964.93847,-105.58043)"
         id="g4419"
         clip-path="none"
         mask="none">
        <g
           transform="matrix(0.75098334,0,0,0.75098334,-60.56959,579.06944)"
           style="display:inline"
           id="g4415"
           inkscape:export-filename="/home/jimmac/gfx/redhat/redhat-ux/Products/RHEL/RHEL7/video-jingles/tex/overview.png"
           inkscape:export-xdpi="90"
           inkscape:export-ydpi="90"
           clip-path="url(#clipPath56767-9)">
          <rect
             y="58"
             x="240"
             height="600"
             width="800"
             id="rect4359"
             style="color:#000000;display:inline;overflow:visible;visibility:visible;fill:#ffffff;stroke:#3584e4;stroke-width:3;stroke-miterlimit:4;stroke-dasharray:none;stroke-opacity:1;marker:none;enable-background:new" />
          <g
             inkscape:label="view-grid"
             id="g4381"
             transform="matrix(4,0,0,4,172,-591)"
             style="display:inline">
            <rect
               style="color:#bebebe;display:inline;overflow:visible;visibility:visible;fill:none;stroke:none;stroke-width:1;marker:none"
               id="rect4361"
               width="16"
               height="16"
               x="20"
               y="276"
               inkscape:label="a" />
            <rect
               ry="0.37878788"
               rx="0.38461545"
               y="279"
               x="23.0623"
               height="2"
               width="2.0000002"
               id="rect4363"
               style="color:#000000;display:inline;overflow:visible;visibility:visible;fill:#000000;fill-opacity:1;fill-rule:nonzero;stroke:none;stroke-width:1;marker:none;enable-background:new" />
            <rect
               style="color:#000000;display:inline;overflow:visible;visibility:visible;fill:#000000;fill-opacity:1;fill-rule:nonzero;stroke:none;stroke-width:1;marker:none;enable-background:new"
               id="rect4365"
               width="2.0000002"
               height="2"
               x="27.0623"
               y="279"
               rx="0.38461545"
               ry="0.37878788" />
            <rect
               ry="0.37878788"
               rx="0.38461545"
               y="279"
               x="31.0623"
               height="2"
               width="2.0000002"
               id="rect4367"
               style="color:#000000;display:inline;overflow:visible;visibility:visible;fill:#000000;fill-opacity:1;fill-rule:nonzero;stroke:none;stroke-width:1;marker:none;enable-background:new" />
            <rect
               style="color:#000000;display:inline;overflow:visible;visibility:visible;fill:#000000;fill-opacity:1;fill-rule:nonzero;stroke:none;stroke-width:1;marker:none;enable-background:new"
               id="rect4369"
               width="2.0000002"
               height="2"
               x="23.0623"
               y="283.01562"
               rx="0.38461545"
               ry="0.37878788" />
            <rect
               ry="0.37878788"
               rx="0.38461545"
               y="283.01562"
               x="27.0623"
               height="2"
               width="2.0000002"
               id="rect4371"
               style="color:#000000;display:inline;overflow:visible;visibility:visible;fill:#000000;fill-opacity:1;fill-rule:nonzero;stroke:none;stroke-width:1;marker:none;enable-background:new" />
            <rect
               style="color:#000000;display:inline;overflow:visible;visibility:visible;fill:#000000;fill-opacity:1;fill-rule:nonzero;stroke:none;stroke-width:1;marker:none;enable-background:new"
               id="rect4373"
               width="2.0000002"
               height="2"
               x="31.0623"
               y="283.01562"
               rx="0.38461545"
               ry="0.37878788" />
            <rect
               ry="0.37878788"
               rx="0.38461545"
               y="287"
               x="23.0623"
               height="2"
               width="2.0000002"
               id="rect4375"
               style="color:#000000;display:inline;overflow:visible;visibility:visible;fill:#000000;fill-opacity:1;fill-rule:nonzero;stroke:none;stroke-width:1;marker:none;enable-background:new" />
            <rect
               style="color:#000000;display:inline;overflow:visible;visibility:visible;fill:#000000;fill-opacity:1;fill-rule:nonzero;stroke:none;stroke-width:1;marker:none;enable-background:new"
               id="rect4377"
               width="2.0000002"
               height="2"
               x="27.0623"
               y="287"
               rx="0.38461545"
               ry="0.37878788" />
            <rect
               ry="0.37878788"
               rx="0.38461545"
               y="287"
               x="31.0623"
               height="2"
               width="2.0000002"
               id="rect4379"
               style="color:#000000;display:inline;overflow:visible;visibility:visible;fill:#000000;fill-opacity:1;fill-rule:nonzero;stroke:none;stroke-width:1;marker:none;enable-background:new" />
          </g>
          <path
             sodipodi:nodetypes="ccccccc"
             inkscape:connector-curvature="0"
             id="path4383"
             d="m 239.06066,57.414214 h 800.87864 v 51.485276 c 0,0 -4.0279,-10.606597 -11.0989,-10.96015 L 249,99 c -4.59619,-0.353553 -9.93934,5.5 -9.93934,5.5 z"
             style="color:#000000;display:inline;overflow:visible;visibility:visible;fill:#ffffff;fill-opacity:1;fill-rule:nonzero;stroke:none;stroke-width:3;marker:none;enable-background:new" />
          <path
             sodipodi:nodetypes="cccc"
             inkscape:connector-curvature="0"
             d="m 1039.199,108.766 c 0,-5.89806 -4.7813,-10.6794 -10.6794,-10.6794 H 250.52029 c -5.89809,0 -10.6794,4.78134 -10.6794,10.6794"
             style="fill:none;stroke:#3584e4;stroke-width:2.37319922px;stroke-linecap:round;stroke-linejoin:miter;stroke-opacity:1"
             id="path4385" />
          <text
             id="text4389"
             y="86.187378"
             x="639.8465"
             style="font-style:normal;font-variant:normal;font-weight:bold;font-stretch:normal;line-height:0%;font-family:Cantarell;-inkscape-font-specification:'Cantarell Bold';text-align:center;letter-spacing:0px;word-spacing:0px;writing-mode:lr-tb;text-anchor:middle;fill:#3584e4;fill-opacity:1;stroke:none"
             xml:space="preserve"><tspan
               style="font-size:21.26189423px;line-height:1.25;fill:#3584e4"
               y="86.187378"
               x="639.8465"
               id="tspan4387"
               sodipodi:role="line">14:30</tspan></text>
          <text
             id="text4393"
             y="86.187378"
             x="249.05931"
             style="font-style:normal;font-variant:normal;font-weight:bold;font-stretch:normal;line-height:0%;font-family:Cantarell;-inkscape-font-specification:'Cantarell Bold';text-align:start;letter-spacing:0px;word-spacing:0px;writing-mode:lr-tb;text-anchor:start;fill:#3584e4;fill-opacity:1;stroke:none"
             xml:space="preserve"><tspan
               style="font-size:21.26189423px;line-height:1.25;fill:#3584e4"
               y="86.187378"
               x="249.05931"
               id="tspan4391"
               sodipodi:role="line">Activities</tspan></text>
          <path
             inkscape:connector-curvature="0"
             style="color:#bebebe;display:inline;overflow:visible;visibility:visible;fill:#3584e4;fill-opacity:1;fill-rule:nonzero;stroke:none;stroke-width:1.33158755;marker:none"
             d="m 961.3789,75.087415 h 3.30816 l 3.95316,-3.994763 0.7282,0.02077 v 14.647463 l -0.63289,0.0011 -4.04847,-4.016641 h -3.30816 z"
             id="path4395"
             sodipodi:nodetypes="ccccccccc" />
          <path
             style="color:#000000;font-style:normal;font-variant:normal;font-weight:normal;font-stretch:normal;font-size:medium;line-height:normal;font-family:sans-serif;font-variant-ligatures:normal;font-variant-position:normal;font-variant-caps:normal;font-variant-numeric:normal;font-variant-alternates:normal;font-feature-settings:normal;text-indent:0;text-align:start;text-decoration:none;text-decoration-line:none;text-decoration-style:solid;text-decoration-color:#000000;letter-spacing:normal;word-spacing:normal;text-transform:none;writing-mode:lr-tb;direction:ltr;text-orientation:mixed;dominant-baseline:auto;baseline-shift:baseline;text-anchor:start;white-space:normal;shape-padding:0;clip-rule:nonzero;display:inline;overflow:visible;visibility:visible;opacity:1;isolation:auto;mix-blend-mode:normal;color-interpolation:sRGB;color-interpolation-filters:linearRGB;solid-color:#000000;solid-opacity:1;vector-effect:none;fill:#3584e4;fill-opacity:1;fill-rule:nonzero;stroke:none;stroke-width:2.54999995;stroke-linecap:round;stroke-linejoin:miter;stroke-miterlimit:4;stroke-dasharray:none;stroke-dashoffset:0;stroke-opacity:1;color-rendering:auto;image-rendering:auto;shape-rendering:auto;text-rendering:auto;enable-background:accumulate"
             d="m 27.177734,220.39648 a 1.2751275,1.2751275 0 0 0 -0.888672,2.18946 c 0.35901,0.35901 0.560547,0.84384 0.560547,1.35156 0,0.50772 -0.201537,0.99255 -0.560547,1.35156 a 1.2761078,1.2761078 0 1 0 1.804688,1.80469 c 0.836535,-0.83653 1.306641,-1.97321 1.306641,-3.15625 0,-1.18304 -0.470106,-2.31972 -1.306641,-3.15625 a 1.2751275,1.2751275 0 0 0 -0.916016,-0.38477 z"
             clip-path="url(#clipPath6279-7-9-7-97)"
             id="path4397"
             inkscape:connector-curvature="0"
             transform="matrix(1.0443827,0,0,1.0443827,942.65835,-155.45992)" />
          <path
             style="color:#000000;font-style:normal;font-variant:normal;font-weight:normal;font-stretch:normal;font-size:medium;line-height:normal;font-family:sans-serif;font-variant-ligatures:normal;font-variant-position:normal;font-variant-caps:normal;font-variant-numeric:normal;font-variant-alternates:normal;font-feature-settings:normal;text-indent:0;text-align:start;text-decoration:none;text-decoration-line:none;text-decoration-style:solid;text-decoration-color:#000000;letter-spacing:normal;word-spacing:normal;text-transform:none;writing-mode:lr-tb;direction:ltr;text-orientation:mixed;dominant-baseline:auto;baseline-shift:baseline;text-anchor:start;white-space:normal;shape-padding:0;clip-rule:nonzero;display:inline;overflow:visible;visibility:visible;opacity:1;isolation:auto;mix-blend-mode:normal;color-interpolation:sRGB;color-interpolation-filters:linearRGB;solid-color:#000000;solid-opacity:1;vector-effect:none;fill:#3584e4;fill-opacity:1;fill-rule:nonzero;stroke:none;stroke-width:1.15909004;stroke-linecap:round;stroke-linejoin:miter;stroke-miterlimit:4;stroke-dasharray:none;stroke-dashoffset:0;stroke-opacity:1;color-rendering:auto;image-rendering:auto;shape-rendering:auto;text-rendering:auto;enable-background:accumulate"
             d="m 27.185547,221.09766 a 0.57960298,0.57960298 0 0 0 -0.404297,0.99609 c 0.489244,0.48924 0.763672,1.15185 0.763672,1.84375 0,0.6919 -0.274428,1.35451 -0.763672,1.84375 a 0.58004747,0.58004747 0 1 0 0.820312,0.82031 c 0.706301,-0.7063 1.103516,-1.6652 1.103516,-2.66406 0,-0.99886 -0.397215,-1.95776 -1.103516,-2.66406 a 0.57960298,0.57960298 0 0 0 -0.416015,-0.17578 z"
             clip-path="url(#clipPath6265-3-4-4-6)"
             id="path4399"
             inkscape:connector-curvature="0"
             transform="matrix(2.2976409,0,0,2.2976409,911.40522,-436.11169)" />
          <path
             style="color:#000000;font-style:normal;font-variant:normal;font-weight:normal;font-stretch:normal;font-size:medium;line-height:normal;font-family:sans-serif;font-variant-ligatures:normal;font-variant-position:normal;font-variant-caps:normal;font-variant-numeric:normal;font-variant-alternates:normal;font-feature-settings:normal;text-indent:0;text-align:start;text-decoration:none;text-decoration-line:none;text-decoration-style:solid;text-decoration-color:#000000;letter-spacing:normal;word-spacing:normal;text-transform:none;writing-mode:lr-tb;direction:ltr;text-orientation:mixed;dominant-baseline:auto;baseline-shift:baseline;text-anchor:start;white-space:normal;shape-padding:0;clip-rule:nonzero;display:inline;overflow:visible;visibility:visible;opacity:0.35;isolation:auto;mix-blend-mode:normal;color-interpolation:sRGB;color-interpolation-filters:linearRGB;solid-color:#000000;solid-opacity:1;vector-effect:none;fill:#3584e4;fill-opacity:1;fill-rule:nonzero;stroke:none;stroke-width:0.75;stroke-linecap:round;stroke-linejoin:miter;stroke-miterlimit:4;stroke-dasharray:none;stroke-dashoffset:0;stroke-opacity:1;color-rendering:auto;image-rendering:auto;shape-rendering:auto;text-rendering:auto;enable-background:accumulate"
             d="m 27.1875,221.30469 a 0.3750375,0.3750375 0 0 0 -0.261719,0.64453 c 0.527548,0.52755 0.824219,1.24221 0.824219,1.98828 0,0.74607 -0.296671,1.46073 -0.824219,1.98828 a 0.37565048,0.37565048 0 1 0 0.53125,0.53125 C 28.125028,225.78903 28.5,224.88219 28.5,223.9375 c 0,-0.94469 -0.374972,-1.85153 -1.042969,-2.51953 A 0.3750375,0.3750375 0 0 0 27.1875,221.30469 Z"
             clip-path="url(#clipPath6259-8-81-2-3)"
             id="path4401"
             inkscape:connector-curvature="0"
             transform="matrix(3.5509044,0,0,3.5509044,880.15206,-716.7624)" />
          <path
             style="color:#000000;font-style:normal;font-variant:normal;font-weight:normal;font-stretch:normal;font-size:medium;line-height:normal;font-family:sans-serif;font-variant-ligatures:normal;font-variant-position:normal;font-variant-caps:normal;font-variant-numeric:normal;font-variant-alternates:normal;font-feature-settings:normal;text-indent:0;text-align:start;text-decoration:none;text-decoration-line:none;text-decoration-style:solid;text-decoration-color:#000000;letter-spacing:normal;word-spacing:normal;text-transform:none;writing-mode:lr-tb;direction:ltr;text-orientation:mixed;dominant-baseline:auto;baseline-shift:baseline;text-anchor:start;white-space:normal;shape-padding:0;clip-rule:nonzero;display:inline;overflow:visible;visibility:visible;opacity:1;isolation:auto;mix-blend-mode:normal;color-interpolation:sRGB;color-interpolation-filters:linearRGB;solid-color:#000000;solid-opacity:1;vector-effect:none;fill:#3584e4;fill-opacity:1;fill-rule:nonzero;stroke:none;stroke-width:2.66317511;stroke-linecap:round;stroke-linejoin:miter;stroke-miterlimit:4;stroke-dasharray:none;stroke-dashoffset:0;stroke-opacity:1;marker:none;color-rendering:auto;image-rendering:auto;shape-rendering:auto;text-rendering:auto;enable-background:accumulate"
             d="m 994.7207,70.826172 a 1.3317207,1.3317207 0 0 0 -0.72461,0.1875 c -3.64177,2.10759 -5.42372,6.413496 -4.33593,10.478516 1.08779,4.065019 4.78271,6.903972 8.99023,6.910156 4.20751,0.0062 7.90811,-2.821007 9.00781,-6.882813 1.0997,-4.061805 -0.6691,-8.373902 -4.3047,-10.492187 a 1.3317207,1.3317207 0 1 0 -1.3398,2.300781 c 2.606,1.518439 3.8626,4.58207 3.0742,7.494141 -0.7885,2.91207 -3.4177,4.922401 -6.4336,4.917968 -3.01587,-0.0044 -5.64004,-2.02117 -6.41992,-4.935546 -0.77989,-2.914377 0.48519,-5.975557 3.0957,-7.486329 a 1.3317207,1.3317207 0 0 0 -0.60938,-2.492187 z"
             id="path4403"
             inkscape:connector-curvature="0" />
          <path
             style="color:#000000;font-style:normal;font-variant:normal;font-weight:normal;font-stretch:normal;font-size:medium;line-height:normal;font-family:sans-serif;font-variant-ligatures:normal;font-variant-position:normal;font-variant-caps:normal;font-variant-numeric:normal;font-variant-alternates:normal;font-feature-settings:normal;text-indent:0;text-align:start;text-decoration:none;text-decoration-line:none;text-decoration-style:solid;text-decoration-color:#000000;letter-spacing:normal;word-spacing:normal;text-transform:none;writing-mode:lr-tb;direction:ltr;text-orientation:mixed;dominant-baseline:auto;baseline-shift:baseline;text-anchor:start;white-space:normal;shape-padding:0;clip-rule:nonzero;display:inline;overflow:visible;visibility:visible;opacity:1;isolation:auto;mix-blend-mode:normal;color-interpolation:sRGB;color-interpolation-filters:linearRGB;solid-color:#000000;solid-opacity:1;vector-effect:none;fill:#3584e4;fill-opacity:1;fill-rule:nonzero;stroke:none;stroke-width:2.66317511;stroke-linecap:round;stroke-linejoin:miter;stroke-miterlimit:4;stroke-dasharray:none;stroke-dashoffset:0;stroke-opacity:1;color-rendering:auto;image-rendering:auto;shape-rendering:auto;text-rendering:auto;enable-background:accumulate"
             d="m 998.64258,68.410156 a 1.3317207,1.3317207 0 0 0 -1.31055,1.351563 v 6.658203 a 1.3317207,1.3317207 0 1 0 2.66211,0 v -6.658203 a 1.3317207,1.3317207 0 0 0 -1.35156,-1.351563 z"
             id="path4405"
             inkscape:connector-curvature="0" />
          <path
             inkscape:connector-curvature="0"
             style="color:#bebebe;font-style:normal;font-variant:normal;font-weight:normal;font-stretch:normal;font-size:medium;line-height:normal;font-family:Sans;-inkscape-font-specification:Sans;text-indent:0;text-align:start;text-decoration:none;text-decoration-line:none;letter-spacing:normal;word-spacing:normal;text-transform:none;writing-mode:lr-tb;direction:ltr;baseline-shift:baseline;text-anchor:start;display:inline;overflow:visible;visibility:visible;fill:#3584e4;fill-opacity:1;stroke:none;stroke-width:2.66317511;marker:none;enable-background:accumulate"
             d="m 937.17445,69.87069 c -1.26794,0 -2.33028,1.062341 -2.33028,2.330278 v 5.992144 c 0,1.267937 1.06234,2.330278 2.33028,2.330278 h 0.16645 l -1.0403,2.080605 -0.95708,1.914158 h 2.16383 7.98952 2.16383 l -0.95708,-1.914158 -1.0403,-2.080605 h 0.16645 c 1.26794,0 2.33028,-1.062341 2.33028,-2.330278 v -5.992144 c 0,-1.267937 -1.06234,-2.330278 -2.33028,-2.330278 z m 0.3329,2.663175 h 7.98952 v 5.32635 h -7.98952 z"
             id="path4407" />
          <path
             style="color:#bebebe;font-style:normal;font-variant:normal;font-weight:normal;font-stretch:normal;font-size:medium;line-height:normal;font-family:sans-serif;font-variant-ligatures:normal;font-variant-position:normal;font-variant-caps:normal;font-variant-numeric:normal;font-variant-alternates:normal;font-feature-settings:normal;text-indent:0;text-align:start;text-decoration:none;text-decoration-line:none;text-decoration-style:solid;text-decoration-color:#000000;letter-spacing:normal;word-spacing:normal;text-transform:none;writing-mode:lr-tb;direction:ltr;text-orientation:mixed;dominant-baseline:auto;baseline-shift:baseline;text-anchor:start;white-space:normal;shape-padding:0;clip-rule:nonzero;display:inline;overflow:visible;visibility:visible;opacity:1;isolation:auto;mix-blend-mode:normal;color-interpolation:sRGB;color-interpolation-filters:linearRGB;solid-color:#000000;solid-opacity:1;vector-effect:none;fill:#3584e4;fill-opacity:1;fill-rule:nonzero;stroke:none;stroke-width:2.66317511;stroke-linecap:butt;stroke-linejoin:miter;stroke-miterlimit:4;stroke-dasharray:none;stroke-dashoffset:0;stroke-opacity:1;marker:none;color-rendering:auto;image-rendering:auto;shape-rendering:auto;text-rendering:auto;enable-background:accumulate"
             d="m 940.16992,81.855469 v 5.326172 h 2.66406 v -5.326172 z"
             id="path4409"
             inkscape:connector-curvature="0" />
          <path
             style="color:#bebebe;font-style:normal;font-variant:normal;font-weight:normal;font-stretch:normal;font-size:medium;line-height:normal;font-family:sans-serif;font-variant-ligatures:normal;font-variant-position:normal;font-variant-caps:normal;font-variant-numeric:normal;font-variant-alternates:normal;font-feature-settings:normal;text-indent:0;text-align:start;text-decoration:none;text-decoration-line:none;text-decoration-style:solid;text-decoration-color:#000000;letter-spacing:normal;word-spacing:normal;text-transform:none;writing-mode:lr-tb;direction:ltr;text-orientation:mixed;dominant-baseline:auto;baseline-shift:baseline;text-anchor:start;white-space:normal;shape-padding:0;clip-rule:nonzero;display:inline;overflow:visible;visibility:visible;opacity:1;isolation:auto;mix-blend-mode:normal;color-interpolation:sRGB;color-interpolation-filters:linearRGB;solid-color:#000000;solid-opacity:1;vector-effect:none;fill:#3584e4;fill-opacity:1;fill-rule:nonzero;stroke:none;stroke-width:2.66317511;stroke-linecap:butt;stroke-linejoin:miter;stroke-miterlimit:4;stroke-dasharray:none;stroke-dashoffset:0;stroke-opacity:1;marker:none;color-rendering:auto;image-rendering:auto;shape-rendering:auto;text-rendering:auto;enable-background:accumulate"
             d="m 933.51172,87.181641 v 2.662109 h 15.98047 v -2.662109 z"
             id="path4411"
             inkscape:connector-curvature="0" />
          <path
             sodipodi:nodetypes="cccc"
             inkscape:connector-curvature="0"
             id="path4413"
             d="m 1028.1011,79.636514 -4.9935,4.993458 -4.9934,-4.99346 z"
             style="color:#000000;display:inline;overflow:visible;visibility:visible;fill:#3584e4;fill-opacity:1;stroke:none;stroke-width:3.99476242;marker:none;enable-background:accumulate" />
        </g>
        <path
           style="color:#000000;display:inline;overflow:visible;visibility:visible;fill:none;stroke:#3584e4;stroke-width:1;stroke-miterlimit:4;stroke-dasharray:2, 4;stroke-dashoffset:0;stroke-opacity:1;marker:none;enable-background:accumulate"
           d="M 720.5,819 C 472.49798,819 438.08578,951 119,951"
           id="path4417"
           inkscape:connector-curvature="0"
           sodipodi:nodetypes="cc" />
      </g>
      <rect
         ry="4.8091578"
         rx="4.8091578"
         y="70.845169"
         x="1045.876"
         height="9.6183157"
         width="57.709885"
         id="rect4421"
         style="color:#000000;display:inline;overflow:visible;visibility:visible;fill:#ffffff;fill-opacity:1;fill-rule:nonzero;stroke:#3584e4;stroke-width:0.596093;stroke-miterlimit:4;stroke-dasharray:none;stroke-opacity:1;marker:none;enable-background:new" />
      <ellipse
         cy="75.066727"
         cx="1097.1986"
         id="ellipse4423"
         style="color:#000000;display:inline;overflow:visible;visibility:visible;fill:none;stroke:#3584e4;stroke-width:0.80377787;stroke-linecap:round;stroke-linejoin:round;stroke-miterlimit:4;stroke-dasharray:none;stroke-dashoffset:0;stroke-opacity:1;marker:none;enable-background:new"
         rx="1.8105575"
         ry="1.8085003" />
      <path
         sodipodi:nodetypes="cc"
         id="path4425"
         d="m 1098.6068,76.473335 1.6094,1.60755"
         style="color:#000000;display:inline;overflow:visible;visibility:visible;fill:none;stroke:#3584e4;stroke-width:0.80377793;stroke-linecap:round;stroke-linejoin:round;stroke-miterlimit:4;stroke-dasharray:none;stroke-dashoffset:0;stroke-opacity:1;marker:none;enable-background:new"
         inkscape:connector-curvature="0" />
      <rect
         style="color:#000000;display:inline;overflow:visible;visibility:visible;opacity:0.70638272;fill:none;stroke:none;stroke-width:0.39739534;marker:none;enable-background:accumulate"
         id="rect4427"
         width="6.4302244"
         height="6.4302235"
         x="1094.5834"
         y="72.454453" />
      <path
         sodipodi:nodetypes="cssc"
         inkscape:connector-curvature="0"
         id="path4429"
         d="m 996.38516,84.695059 h 15.02024 c 1.3433,0 2.4247,1.08146 2.4247,2.42479 v 58.488881"
         style="color:#000000;display:inline;overflow:visible;visibility:visible;fill:none;stroke:#98c1f1;stroke-width:0.19869767;stroke-linecap:square;stroke-linejoin:miter;stroke-miterlimit:4;stroke-dashoffset:0;stroke-opacity:1;marker:none;enable-background:new" />
      <text
         id="text4433"
         y="76.659897"
         x="1050.4037"
         style="font-style:normal;font-variant:normal;font-weight:bold;font-stretch:normal;font-size:3.17499995px;line-height:0%;font-family:Cantarell;-inkscape-font-specification:'Cantarell Bold';text-align:start;letter-spacing:0px;word-spacing:0px;writing-mode:lr-tb;text-anchor:start;fill:#3584e4;fill-opacity:1;stroke:none;stroke-width:0.26458332"
         xml:space="preserve"><tspan
           style="font-size:3.70416665px;line-height:1.25;fill:#3584e4;fill-opacity:1;stroke-width:0.26458332"
           y="76.659897"
           x="1050.4037"
           id="tspan4431"
           sodipodi:role="line">just type</tspan></text>
      <g
         id="g4455"
         transform="matrix(0.0873125,0,0,0.0873125,1041.4297,49.319883)">
        <g
           id="g4437"
           transform="matrix(0.26785714,0,0,0.26785714,-482.48304,489.73394)"
           style="display:inline;stroke-width:0.93333334;enable-background:new">
          <circle
             style="display:inline;opacity:1;fill:#3584e4;fill-opacity:1;stroke:#3584e4;stroke-width:45.25252533;stroke-linecap:butt;stroke-linejoin:miter;stroke-miterlimit:4;stroke-dasharray:none;stroke-dashoffset:0;stroke-opacity:1;marker:none;marker-start:none;marker-mid:none;marker-end:none;paint-order:normal;enable-background:new"
             id="circle4435"
             cx="256"
             cy="43.999989"
             r="224" />
        </g>
        <path
           transform="translate(-477.91161,265.51965)"
           style="color:#000000;display:inline;overflow:visible;visibility:visible;opacity:1;vector-effect:none;fill:#ffffff;fill-opacity:1;fill-rule:nonzero;stroke:none;stroke-width:0.01129821px;stroke-linecap:butt;stroke-linejoin:miter;stroke-miterlimit:4;stroke-dasharray:none;stroke-dashoffset:0;stroke-opacity:1;marker:none;marker-start:none;marker-mid:none;marker-end:none;paint-order:normal;enable-background:accumulate"
           clip-path="url(#clipPath987-6)"
           d="m 38,176 v 4 l 10,8 v 8 l 8,8 h 4 v -4 l 6,-6 v -4 l 4,-4 v -10 z m -4,16 H 4 c 0,0 0.5090211,40.4419 0,40 l 20,18 v -6 l -4,-4 6,-6 h 4 l 4,4 0.12494,-8.4018 L 40,224 h 4 v -4 l 4,-4 v -6 L 43.727619,206.12499 34,206 v 8 h -4 l -4,-4 v -4 l 6,-6 h 6 v -4 z m 60,2 -6,6 v 4 h 6 v -2.14287 h 4 v 4.26786 L 96,208 H 86 v 4 h -4 v 6 h -8 v 8 h 10 v -4 h 8 v 2 l 4,4 h 2 v -2 l -2,-2 v -2 h 4 l 6,6 h 6 v 2 l -2,2 h -4 l 18,18 V 194 H 96 Z m 12,38 H 94 l -2,-2 H 78 l -8,8 v 8 l 8,8 h 6 l 4,4 v 2 l 2,2 v 12 l 14,14 h 8 v -30 l 4,-4 v -8 l -10,-10 z m -2,-12 h 4 l 6,6 h -4 z m -74,28 -4,4 v 10 l 8.12494,8.14285 L 34,296 h 8 v -8 l 6,-6 v -4 l 6,-6 v -4 l 4,-4 v -8 l -4,-4 h -8 l -4,-4 z"
           id="path4439"
           inkscape:connector-curvature="0"
           sodipodi:nodetypes="ccccccccccccccccccccccccccccccccccccccccccccccccccccccccccccccccccccccccccccccccccccccccccccccccccccccccccccccc" />
        <g
           style="display:inline;opacity:1;stroke:#98c1f1;enable-background:new"
           id="g4447"
           transform="matrix(0.33027944,0,0,0.33027944,-722.51179,363.54416)">
          <circle
             style="color:#000000;display:inline;overflow:visible;visibility:visible;opacity:0.66763006;fill:none;stroke:#98c1f1;stroke-width:16.92636299;stroke-linecap:butt;stroke-linejoin:round;stroke-miterlimit:4;stroke-dasharray:none;stroke-dashoffset:0;stroke-opacity:1;marker:none"
             id="circle4441"
             cx="883.60425"
             cy="372.21783"
             r="36.270779" />
          <circle
             style="color:#000000;display:inline;overflow:visible;visibility:visible;opacity:0.66763006;fill:none;stroke:#98c1f1;stroke-width:11.69271851;stroke-linecap:butt;stroke-linejoin:round;stroke-miterlimit:4;stroke-dasharray:none;stroke-dashoffset:0;stroke-opacity:1;marker:none"
             id="circle4443"
             cx="883.60431"
             cy="372.2179"
             r="68.971695" />
          <circle
             style="color:#000000;display:inline;overflow:visible;visibility:visible;opacity:0.66763006;fill:none;stroke:#98c1f1;stroke-width:5.99500418;stroke-linecap:butt;stroke-linejoin:round;stroke-miterlimit:4;stroke-dasharray:none;stroke-dashoffset:0;stroke-opacity:1;marker:none"
             id="circle4445"
             cx="883.60437"
             cy="372.21796"
             r="103.1213" />
        </g>
        <g
           style="display:inline;enable-background:new"
           id="g4453"
           transform="translate(-477.91161,277.51965)">
          <g
             id="g4451">
            <path
               inkscape:connector-curvature="0"
               d="m 47.589745,209.314 -47.7665216,46.36163 21.7759096,0.70244 c 0,0 -9.131831,18.96611 -9.131831,18.96611 -2.8097966,8.42939 9.834282,11.59041 11.941628,5.26838 0,0 8.42939,-18.96612 8.42939,-18.96612 l 15.453872,16.50755 z"
               id="path4449"
               sodipodi:nodetypes="cccssccc"
               style="color:#000000;display:inline;overflow:visible;visibility:visible;fill:#ffffff;fill-opacity:1;fill-rule:evenodd;stroke:#3584e4;stroke-width:6.060606;stroke-miterlimit:4;stroke-dasharray:none;stroke-opacity:1;marker:none;enable-background:new" />
          </g>
        </g>
      </g>
      <path
         style="color:#000000;font-style:normal;font-variant:normal;font-weight:normal;font-stretch:normal;font-size:medium;line-height:normal;font-family:sans-serif;font-variant-ligatures:normal;font-variant-position:normal;font-variant-caps:normal;font-variant-numeric:normal;font-variant-alternates:normal;font-feature-settings:normal;text-indent:0;text-align:start;text-decoration:none;text-decoration-line:none;text-decoration-style:solid;text-decoration-color:#000000;letter-spacing:normal;word-spacing:normal;text-transform:none;writing-mode:lr-tb;direction:ltr;text-orientation:mixed;dominant-baseline:auto;baseline-shift:baseline;text-anchor:start;white-space:normal;shape-padding:0;clip-rule:nonzero;display:inline;overflow:visible;visibility:visible;opacity:1;isolation:auto;mix-blend-mode:normal;color-interpolation:sRGB;color-interpolation-filters:linearRGB;solid-color:#000000;solid-opacity:1;vector-effect:none;fill:#3584e4;fill-opacity:1;fill-rule:nonzero;stroke:none;stroke-width:0.69850004;stroke-linecap:butt;stroke-linejoin:miter;stroke-miterlimit:4;stroke-dasharray:none;stroke-dashoffset:0;stroke-opacity:1;marker:none;color-rendering:auto;image-rendering:auto;shape-rendering:auto;text-rendering:auto;enable-background:new"
         d="m 1001.2659,119.14771 a 1.04775,1.04775 0 0 0 -1.0478,1.04774 1.04775,1.04775 0 0 0 0.6985,0.98654 v 5.71044 a 1.04775,1.04775 0 0 0 -0.6985,0.98653 1.04775,1.04775 0 0 0 1.0478,1.04775 1.04775,1.04775 0 0 0 0.9064,-0.52388 h 5.8712 a 1.04775,1.04775 0 0 0 0.9059,0.52388 1.04775,1.04775 0 0 0 1.0477,-1.04775 1.04775,1.04775 0 0 0 -0.6985,-0.98653 v -5.71044 a 1.04775,1.04775 0 0 0 0.6985,-0.98654 1.04775,1.04775 0 0 0 -1.0477,-1.04774 1.04775,1.04775 0 0 0 -1.0319,0.87311 h -5.6187 a 1.04775,1.04775 0 0 0 -1.0329,-0.87311 z m 0.9064,1.57161 h 5.8712 a 1.04775,1.04775 0 0 0 0.023,0.0399 l -0.9053,0.90536 a 0.69849999,0.69849999 0 0 0 -0.3072,-0.0721 0.69849999,0.69849999 0 0 0 -0.6753,0.52387 h -2.1413 a 0.69849999,0.69849999 0 0 0 -0.6759,-0.52387 0.69849999,0.69849999 0 0 0 -0.3074,0.0718 l -0.9057,-0.90569 a 1.04775,1.04775 0 0 0 0.024,-0.0392 z m -0.5571,0.49387 1.0491,1.04911 a 0.69849999,0.69849999 0 0 0 -10e-4,0.0286 0.69849999,0.69849999 0 0 0 0.3492,0.60419 v 2.28445 a 0.69849999,0.69849999 0 0 0 -0.3492,0.60386 0.69849999,0.69849999 0 0 0 0.072,0.30747 l -0.9057,0.90571 a 1.04775,1.04775 0 0 0 -0.2139,-0.1042 z m 6.9849,0 v 5.67924 a 1.04775,1.04775 0 0 0 -0.2145,0.10351 l -0.9053,-0.90536 a 0.69849999,0.69849999 0 0 0 0.072,-0.30713 0.69849999,0.69849999 0 0 0 -0.3493,-0.60419 v -2.28445 a 0.69849999,0.69849999 0 0 0 0.3493,-0.60386 0.69849999,0.69849999 0 0 0 0,-0.029 z m -4.7779,1.60163 h 2.5706 a 0.69849999,0.69849999 0 0 0 0.1119,0.0803 v 2.28445 a 0.69849999,0.69849999 0 0 0 -0.3261,0.42922 h -2.1414 a 0.69849999,0.69849999 0 0 0 -0.3265,-0.42957 v -2.28445 a 0.69849999,0.69849999 0 0 0 0.1115,-0.08 z m 0,3.4925 h 2.5706 a 0.69849999,0.69849999 0 0 0 0.4611,0.17464 0.69849999,0.69849999 0 0 0 0.029,-0.001 l 1.0716,1.07163 a 1.04775,1.04775 0 0 0 -0.037,0.15177 h -5.6187 a 1.04775,1.04775 0 0 0 -0.038,-0.15126 l 1.0725,-1.07248 a 0.69849999,0.69849999 0 0 0 0.029,0.001 0.69849999,0.69849999 0 0 0 0.4608,-0.17463 z"
         id="path4457"
         inkscape:connector-curvature="0" />
      <g
         transform="matrix(0.0873125,0,0,0.0873125,931.32859,194.86809)"
         id="g4469">
        <path
           inkscape:connector-curvature="0"
           id="path4459"
           d="m 798.33622,-694.6285 c -4.70031,0 -8.48432,3.78401 -8.48432,8.48432 v 10.60536 74.23787 8.48433 c 0,4.70031 3.78401,8.48432 8.48432,8.48432 h 93.32756 c 4.70031,0 8.48432,-3.78401 8.48432,-8.48432 v -8.48433 -74.23787 -10.60536 c 0,-4.70031 -3.78401,-8.48432 -8.48432,-8.48432 z"
           style="display:inline;opacity:1;fill:#ffffff;fill-opacity:1;stroke:#3584e4;stroke-width:4;stroke-linecap:butt;stroke-linejoin:miter;stroke-miterlimit:4;stroke-dasharray:none;stroke-dashoffset:0;stroke-opacity:1;marker:none;marker-start:none;marker-mid:none;marker-end:none;paint-order:normal;enable-background:new" />
        <rect
           style="display:inline;opacity:1;vector-effect:none;fill:#3584e4;fill-opacity:1;stroke:none;stroke-width:0.01121096px;stroke-linecap:butt;stroke-linejoin:miter;stroke-miterlimit:4;stroke-dasharray:none;stroke-dashoffset:0;stroke-opacity:1;marker:none;marker-start:none;marker-mid:none;marker-end:none;paint-order:normal;enable-background:new"
           id="rect4461"
           width="96"
           height="87.999969"
           x="797"
           y="599.48041"
           rx="4"
           ry="3.9999695"
           transform="scale(1,-1)" />
        <g
           style="display:inline;fill:#ffffff;enable-background:new"
           transform="translate(779,-877.48042)"
           id="g4467">
          <path
             inkscape:connector-curvature="0"
             id="path4463"
             style="font-style:normal;font-variant:normal;font-weight:bold;font-stretch:normal;font-size:medium;line-height:1.25;font-family:'Source Code Pro';-inkscape-font-specification:'Source Code Pro, Bold';font-variant-ligatures:normal;font-variant-caps:normal;font-variant-numeric:normal;font-feature-settings:normal;text-align:start;letter-spacing:0px;word-spacing:0px;writing-mode:lr-tb;text-anchor:start;fill:#ffffff;fill-opacity:1;stroke:none;stroke-width:0.24999999"
             d="M 44.012301,210.88755 30,203.27182 V 208 l 9.710724,4.62951 v 0.1422 L 30,218 v 4.72818 l 14.012301,-8.21451 z"
             sodipodi:nodetypes="ccccccccc" />
          <path
             sodipodi:nodetypes="ccccc"
             inkscape:connector-curvature="0"
             id="path4465"
             style="font-style:normal;font-variant:normal;font-weight:bold;font-stretch:normal;font-size:medium;line-height:1.25;font-family:'Source Code Pro';-inkscape-font-specification:'Source Code Pro, Bold';font-variant-ligatures:normal;font-variant-caps:normal;font-variant-numeric:normal;font-feature-settings:normal;text-align:start;letter-spacing:0px;word-spacing:0px;writing-mode:lr-tb;text-anchor:start;fill:#ffffff;fill-opacity:1;stroke:none;stroke-width:0.24999999"
             d="m 47.999998,226 2e-6,4 h 16.00001 l -2e-6,-4 z" />
        </g>
      </g>
      <g
         transform="matrix(0.0873125,0,0,0.0873125,999.41877,88.500909)"
         style="display:inline;enable-background:new"
         id="g4487">
        <rect
           ry="8.9127073"
           rx="8.9127073"
           y="173.8392"
           x="14.980104"
           height="120.32159"
           width="98.039749"
           id="rect4471"
           style="opacity:1;vector-effect:none;fill:#ffffff;fill-opacity:1;stroke:#3584e4;stroke-width:6.31358576;stroke-linecap:butt;stroke-linejoin:miter;stroke-miterlimit:4;stroke-dasharray:none;stroke-dashoffset:0;stroke-opacity:1;marker:none;marker-start:none;marker-mid:none;marker-end:none;paint-order:normal" />
        <path
           style="display:inline;opacity:1;vector-effect:none;fill:#3584e4;fill-opacity:1;stroke:none;stroke-width:0.0119126px;stroke-linecap:butt;stroke-linejoin:miter;stroke-miterlimit:4;stroke-dasharray:none;stroke-dashoffset:0;stroke-opacity:1;marker:none;marker-start:none;marker-mid:none;marker-end:none;paint-order:normal;enable-background:new"
           d="m 525,430.125 c -2.216,0 -4,1.784 -4,4 V 463 h 80 v -28.875 c 0,-2.216 -1.784,-4 -4,-4 z M 521,465 v 30 h 80 v -30 z m 0,32 v 29 c 0,2.216 1.784,4 4,4 h 72 c 2.216,0 4,-1.784 4,-4 v -29 z"
           transform="translate(-497,-247)"
           id="path4473"
           inkscape:connector-curvature="0"
           sodipodi:nodetypes="ssccsssccccccsssscc" />
        <g
           id="g4481">
          <path
             inkscape:connector-curvature="0"
             style="opacity:1;vector-effect:none;fill:#ffffff;fill-opacity:1;stroke:none;stroke-width:0.01184966px;stroke-linecap:butt;stroke-linejoin:miter;stroke-miterlimit:4;stroke-dasharray:none;stroke-dashoffset:0;stroke-opacity:1;marker:none;marker-start:none;marker-mid:none;marker-end:none;paint-order:normal"
             d="m 552,443 c -1.662,0 -3,1.338 -3,3 v 4 1 h 4 0.0312 l -0.0156,-2 H 569 v 2 H 569.0312 573 v -1 -4 c 0,-2 -1.338,-3 -3,-3 z"
             transform="translate(-497,-247)"
             id="path4475" />
          <path
             id="path4477"
             d="m 55,229.33334 c -1.662,0 -3,1.338 -3,3 v 4 1 h 4 0.0312 l -0.0156,-2 H 72 v 2 H 72.0312 76 v -1 -4 c 0,-2 -1.338,-3 -3,-3 z"
             style="opacity:1;vector-effect:none;fill:#ffffff;fill-opacity:1;stroke:none;stroke-width:0.01184966px;stroke-linecap:butt;stroke-linejoin:miter;stroke-miterlimit:4;stroke-dasharray:none;stroke-dashoffset:0;stroke-opacity:1;marker:none;marker-start:none;marker-mid:none;marker-end:none;paint-order:normal"
             inkscape:connector-curvature="0" />
          <path
             inkscape:connector-curvature="0"
             style="opacity:1;vector-effect:none;fill:#ffffff;fill-opacity:1;stroke:none;stroke-width:0.01184966px;stroke-linecap:butt;stroke-linejoin:miter;stroke-miterlimit:4;stroke-dasharray:none;stroke-dashoffset:0;stroke-opacity:1;marker:none;marker-start:none;marker-mid:none;marker-end:none;paint-order:normal"
             d="m 55,259.63639 c -1.662,0 -3,1.338 -3,3 v 4 1 h 4 0.0312 l -0.0156,-2 H 72 v 2 H 72.0312 76 v -1 -4 c 0,-2 -1.338,-3 -3,-3 z"
             id="path4479" />
        </g>
        <g
           transform="matrix(0.26458333,0,0,0.26458333,480.74788,-402.04374)"
           style="display:inline;enable-background:new"
           id="g4483" />
        <g
           transform="matrix(0.26458333,0,0,0.26458333,480.74788,-370.04374)"
           style="display:inline;enable-background:new"
           id="g4485" />
      </g>
    </g>
  </g>
</svg>
