<svg xmlns="http://www.w3.org/2000/svg" width="1200" height="600"><defs><clipPath clipPathUnits="userSpaceOnUse" id="a"><path d="M228.46 29.202h833.574V319.49c-330.237 0-408.683 175.77-833.574 175.77z" style="marker:none" color="#000" overflow="visible" fill="#babdb6"/></clipPath><clipPath clipPathUnits="userSpaceOnUse" id="b"><path style="marker:none" color="#bebebe" overflow="visible" fill="#bebebe" stroke-width="2" d="M26.85 220.75h3.825v6.375H26.85z"/></clipPath><clipPath clipPathUnits="userSpaceOnUse" id="c"><path style="marker:none" color="#bebebe" overflow="visible" fill="#bebebe" stroke-width="2" d="M26.966 221.33h2.898v5.216h-2.898z"/></clipPath><clipPath clipPathUnits="userSpaceOnUse" id="d"><path style="marker:none" color="#bebebe" overflow="visible" fill="#bebebe" stroke-width="2" d="M26.999 221.502h1.876v4.873h-1.876z"/></clipPath><clipPath clipPathUnits="userSpaceOnUse" id="e"><circle r="60" cy="236" cx="64" style="marker:none" fill="#3584e4" stroke-width="4.286"/></clipPath></defs><g transform="matrix(2 0 0 2 149.175 -260.804)"><g clip-path="url(#a)" transform="matrix(.59339 0 0 .59339 -153.475 115.364)"><g transform="matrix(4 0 0 4 172 -591)"><path style="marker:none" color="#bebebe" overflow="visible" fill="none" d="M20 276h16v16H20z"/><rect style="marker:none" width="2" height="2" x="23.062" y="279" rx=".385" ry=".379" color="#000" overflow="visible"/><rect ry=".379" rx=".385" y="279" x="27.062" height="2" width="2" style="marker:none" color="#000" overflow="visible"/><rect style="marker:none" width="2" height="2" x="31.062" y="279" rx=".385" ry=".379" color="#000" overflow="visible"/><rect ry=".379" rx=".385" y="283.016" x="23.062" height="2" width="2" style="marker:none" color="#000" overflow="visible"/><rect style="marker:none" width="2" height="2" x="27.062" y="283.016" rx=".385" ry=".379" color="#000" overflow="visible"/><rect ry=".379" rx=".385" y="283.016" x="31.062" height="2" width="2" style="marker:none" color="#000" overflow="visible"/><rect style="marker:none" width="2" height="2" x="23.062" y="287" rx=".385" ry=".379" color="#000" overflow="visible"/><rect ry=".379" rx=".385" y="287" x="27.062" height="2" width="2" style="marker:none" color="#000" overflow="visible"/><rect style="marker:none" width="2" height="2" x="31.062" y="287" rx=".385" ry=".379" color="#000" overflow="visible"/></g><path style="marker:none" d="M239.06 57.414h800.88V108.9s-4.029-10.606-11.1-10.96L249 99c-4.596-.354-9.94 5.5-9.94 5.5z" color="#000" overflow="visible" fill="#fff"/><path style="marker:none" color="#000" overflow="visible" fill="#fff" stroke="#3584e4" stroke-width="3.372" d="M240.001 58.15h800.743v599.998H240.001z"/><path d="M1039.199 109.003c0-5.898-4.781-10.68-10.68-10.68H250.52c-5.898 0-10.68 4.782-10.68 10.68" fill="none" stroke="#3584e4" stroke-width="2.373" stroke-linecap="round"/><text y="86.187" x="628.846" style="line-height:0%;-inkscape-font-specification:'Cantarell Bold';text-align:center" font-weight="700" font-family="Cantarell" letter-spacing="0" word-spacing="0" text-anchor="middle" fill="#3584e4" transform="translate(11)"><tspan style="line-height:1.25" y="86.187" x="628.846" font-size="21.262">14:30</tspan></text><text y="86.187" x="238.059" style="line-height:0%;-inkscape-font-specification:'Cantarell Bold';text-align:start" font-weight="700" font-family="Cantarell" letter-spacing="0" word-spacing="0" fill="#3584e4" transform="translate(11)"><tspan style="line-height:1.25" y="86.187" x="238.059" font-size="21.262">Activities</tspan></text><path style="marker:none" color="#000" overflow="visible" opacity=".706" fill="none" d="M733.912 129.896h32.362v32.362h-32.362z"/></g><g fill="#3584e4"><path style="marker:none" d="M414.764 160.011h1.993l2.383-2.407.439.012v8.827h-.382l-2.44-2.42h-1.993z" color="#bebebe" overflow="visible"/><path style="line-height:normal;font-variant-ligatures:normal;font-variant-position:normal;font-variant-caps:normal;font-variant-numeric:normal;font-variant-alternates:normal;font-feature-settings:normal;text-indent:0;text-align:start;text-decoration-line:none;text-decoration-style:solid;text-decoration-color:#000;text-transform:none;text-orientation:mixed;white-space:normal;shape-padding:0;isolation:auto;mix-blend-mode:normal;solid-color:#000;solid-opacity:1" d="M27.178 220.396a1.275 1.275 0 00-.889 2.19 1.91 1.91 0 010 2.703 1.276 1.276 0 101.805 1.805 4.466 4.466 0 000-6.313 1.275 1.275 0 00-.916-.385z" clip-path="url(#b)" transform="matrix(.62939 0 0 .62939 403.482 21.074)" color="#000" font-weight="400" font-family="sans-serif" overflow="visible"/><path style="line-height:normal;font-variant-ligatures:normal;font-variant-position:normal;font-variant-caps:normal;font-variant-numeric:normal;font-variant-alternates:normal;font-feature-settings:normal;text-indent:0;text-align:start;text-decoration-line:none;text-decoration-style:solid;text-decoration-color:#000;text-transform:none;text-orientation:mixed;white-space:normal;shape-padding:0;isolation:auto;mix-blend-mode:normal;solid-color:#000;solid-opacity:1" d="M27.186 221.098a.58.58 0 00-.405.996 2.606 2.606 0 010 3.687.58.58 0 10.82.82 3.769 3.769 0 000-5.328.58.58 0 00-.415-.175z" clip-path="url(#c)" transform="matrix(1.38465 0 0 1.38465 384.648 -148.058)" color="#000" font-weight="400" font-family="sans-serif" overflow="visible"/><path style="line-height:normal;font-variant-ligatures:normal;font-variant-position:normal;font-variant-caps:normal;font-variant-numeric:normal;font-variant-alternates:normal;font-feature-settings:normal;text-indent:0;text-align:start;text-decoration-line:none;text-decoration-style:solid;text-decoration-color:#000;text-transform:none;text-orientation:mixed;white-space:normal;shape-padding:0;isolation:auto;mix-blend-mode:normal;solid-color:#000;solid-opacity:1" d="M27.188 221.305a.375.375 0 00-.262.644 2.811 2.811 0 010 3.977.376.376 0 10.531.531 3.564 3.564 0 000-5.039.375.375 0 00-.27-.113z" clip-path="url(#d)" transform="matrix(2.13992 0 0 2.13992 365.813 -317.189)" color="#000" font-weight="400" font-family="sans-serif" overflow="visible" opacity=".35"/><path style="line-height:normal;font-variant-ligatures:normal;font-variant-position:normal;font-variant-caps:normal;font-variant-numeric:normal;font-variant-alternates:normal;font-feature-settings:normal;text-indent:0;text-align:start;text-decoration-line:none;text-decoration-style:solid;text-decoration-color:#000;text-transform:none;text-orientation:mixed;white-space:normal;shape-padding:0;isolation:auto;mix-blend-mode:normal;solid-color:#000;solid-opacity:1;marker:none" d="M434.857 157.443a.803.803 0 00-.437.113 5.625 5.625 0 00-2.613 6.315 5.624 5.624 0 005.418 4.164 5.622 5.622 0 005.429-4.147 5.626 5.626 0 00-2.595-6.323.803.803 0 10-.807 1.386 4.007 4.007 0 011.853 4.516 4.004 4.004 0 01-3.878 2.964 4.004 4.004 0 01-3.868-2.974 4.006 4.006 0 011.865-4.512.803.803 0 00-.367-1.502z" color="#000" font-weight="400" font-family="sans-serif" overflow="visible"/><path style="line-height:normal;font-variant-ligatures:normal;font-variant-position:normal;font-variant-caps:normal;font-variant-numeric:normal;font-variant-alternates:normal;font-feature-settings:normal;text-indent:0;text-align:start;text-decoration-line:none;text-decoration-style:solid;text-decoration-color:#000;text-transform:none;text-orientation:mixed;white-space:normal;shape-padding:0;isolation:auto;mix-blend-mode:normal;solid-color:#000;solid-opacity:1" d="M437.22 155.987a.803.803 0 00-.79.815v4.012a.803.803 0 101.605 0v-4.012a.803.803 0 00-.815-.815z" color="#000" font-weight="400" font-family="sans-serif" overflow="visible"/><path style="line-height:normal;-inkscape-font-specification:Sans;text-indent:0;text-align:start;text-decoration-line:none;text-transform:none;marker:none" d="M400.177 156.867a1.42 1.42 0 00-1.404 1.405v3.61c0 .765.64 1.405 1.404 1.405h.1l-.627 1.254-.576 1.154H406.496l-.576-1.154-.627-1.254h.1a1.42 1.42 0 001.404-1.404v-3.611a1.42 1.42 0 00-1.404-1.405zm.2 1.605h4.815v3.21h-4.815z" color="#bebebe" font-weight="400" font-family="Sans" overflow="visible"/><path style="line-height:normal;font-variant-ligatures:normal;font-variant-position:normal;font-variant-caps:normal;font-variant-numeric:normal;font-variant-alternates:normal;font-feature-settings:normal;text-indent:0;text-align:start;text-decoration-line:none;text-decoration-style:solid;text-decoration-color:#000;text-transform:none;text-orientation:mixed;white-space:normal;shape-padding:0;isolation:auto;mix-blend-mode:normal;solid-color:#000;solid-opacity:1;marker:none" d="M401.982 164.09v3.21h1.606v-3.21zM397.97 167.3v1.604h9.63V167.3z" color="#bebebe" font-weight="400" font-family="sans-serif" overflow="visible"/><path d="M454.973 162.753l-3.01 3.009-3.008-3.01z" style="marker:none" color="#000" overflow="visible"/></g><rect ry="12.882" rx="12.882" y="188.132" x="151.548" height="25.765" width="154.588" style="marker:none" color="#000" overflow="visible" fill="#fff" stroke="#3584e4" stroke-width="1.597"/><ellipse cy="199.441" cx="289.026" style="marker:none" rx="4.85" ry="4.844" color="#000" overflow="visible" fill="none" stroke="#3584e4" stroke-width="2.153" stroke-linecap="round" stroke-linejoin="round"/><path d="M292.798 203.208l4.311 4.307" style="marker:none" color="#000" overflow="visible" fill="none" stroke="#3584e4" stroke-width="2.153" stroke-linecap="round" stroke-linejoin="round"/><path style="marker:none" color="#000" overflow="visible" opacity=".706" fill="none" d="M282.021 192.443h17.225v17.225h-17.225z"/><path d="M-9.815 240.062H31.35a6.63 6.63 0 016.645 6.646v160.298" style="marker:none" color="#000" overflow="visible" fill="none" stroke="#98c1f1" stroke-width=".545" stroke-linecap="square"/><text y="203.708" x="163.676" style="line-height:0%;-inkscape-font-specification:'Cantarell Bold';text-align:start" font-weight="700" font-size="8.505" font-family="Cantarell" letter-spacing="0" word-spacing="0" fill="#3584e4" stroke-width=".709"><tspan style="line-height:1.25" y="203.708" x="163.676" font-size="9.922">just type</tspan></text><circle style="marker:none" cx="256" cy="44" r="224" fill="#3584e4" stroke="#3584e4" stroke-width="45.253" transform="matrix(.0641 0 0 .0641 -1.819 260.301)"/><path transform="matrix(.2393 0 0 .2393 -.725 206.648)" style="marker:none" clip-path="url(#e)" d="M38 176v4l10 8v8l8 8h4v-4l6-6v-4l4-4v-10zm-4 16H4s.509 40.442 0 40l20 18v-6l-4-4 6-6h4l4 4 .125-8.402L40 224h4v-4l4-4v-6l-4.272-3.875L34 206v8h-4l-4-4v-4l6-6h6v-4zm60 2l-6 6v4h6v-2.143h4v4.268L96 208H86v4h-4v6h-8v8h10v-4h8v2l4 4h2v-2l-2-2v-2h4l6 6h6v2l-2 2h-4l18 18v-56H96zm12 38H94l-2-2H78l-8 8v8l8 8h6l4 4v2l2 2v12l14 14h8v-30l4-4v-8l-10-10zm-2-12h4l6 6h-4zm-74 28l-4 4v10l8.125 8.143L34 296h8v-8l6-6v-4l6-6v-4l4-4v-8l-4-4h-8l-4-4z" color="#000" overflow="visible" fill="#fff"/><g transform="matrix(.07903 0 0 .07903 -59.256 230.105)" stroke="#98c1f1" color="#000" fill="none" stroke-linejoin="round"><circle style="marker:none" cx="883.604" cy="372.218" r="36.271" overflow="visible" opacity=".668" stroke-width="16.926"/><circle style="marker:none" cx="883.604" cy="372.218" r="68.972" overflow="visible" opacity=".668" stroke-width="11.693"/><circle style="marker:none" cx="883.604" cy="372.218" r="103.121" overflow="visible" opacity=".668" stroke-width="5.995"/></g><path d="M10.663 259.607l-11.43 11.094 5.21.168-2.185 4.539c-.672 2.017 2.354 2.773 2.858 1.26l2.017-4.538 3.698 3.95z" style="marker:none" color="#000" overflow="visible" fill="#fff" fill-rule="evenodd" stroke="#3584e4" stroke-width="1.45033669"/><path style="line-height:normal;font-variant-ligatures:normal;font-variant-position:normal;font-variant-caps:normal;font-variant-numeric:normal;font-variant-alternates:normal;font-feature-settings:normal;text-indent:0;text-align:start;text-decoration-line:none;text-decoration-style:solid;text-decoration-color:#000;text-transform:none;text-orientation:mixed;white-space:normal;shape-padding:0;isolation:auto;mix-blend-mode:normal;solid-color:#000;solid-opacity:1;marker:none" d="M3.561 334.485a2.872 2.872 0 00-2.872 2.872 2.872 2.872 0 001.915 2.703v15.65a2.872 2.872 0 00-1.915 2.705 2.872 2.872 0 002.872 2.871 2.872 2.872 0 002.484-1.436h16.091a2.872 2.872 0 002.483 1.436 2.872 2.872 0 002.871-2.871 2.872 2.872 0 00-1.914-2.704v-15.65a2.872 2.872 0 001.914-2.704 2.872 2.872 0 00-2.871-2.872 2.872 2.872 0 00-2.828 2.393H6.39a2.872 2.872 0 00-2.83-2.393zm2.484 4.307h16.091a2.872 2.872 0 00.063.11l-2.481 2.481a1.914 1.914 0 00-.842-.198 1.914 1.914 0 00-1.85 1.436h-5.87a1.914 1.914 0 00-1.852-1.436 1.914 1.914 0 00-.842.197L5.98 338.9a2.872 2.872 0 00.065-.107zm-1.527 1.354l2.876 2.875a1.914 1.914 0 00-.003.078 1.914 1.914 0 00.957 1.656v6.261a1.914 1.914 0 00-.957 1.655 1.914 1.914 0 00.197.843l-2.482 2.482a2.872 2.872 0 00-.586-.285zm19.144 0v15.565a2.872 2.872 0 00-.588.283l-2.481-2.48a1.914 1.914 0 00.197-.843 1.914 1.914 0 00-.957-1.655v-6.261a1.914 1.914 0 00.957-1.655 1.914 1.914 0 000-.08zm-13.095 4.39h7.045a1.914 1.914 0 00.307.22v6.26a1.914 1.914 0 00-.894 1.177h-5.869a1.914 1.914 0 00-.895-1.178v-6.26a1.914 1.914 0 00.306-.22zm0 9.571h7.045a1.914 1.914 0 001.264.479 1.914 1.914 0 00.08-.003l2.936 2.937a2.872 2.872 0 00-.101.416H6.39a2.872 2.872 0 00-.103-.415l2.94-2.939a1.914 1.914 0 00.079.003 1.914 1.914 0 001.262-.479z" color="#000" font-weight="400" font-family="sans-serif" overflow="visible" fill="#3584e4"/><g transform="matrix(.2393 0 0 .2393 -188.113 542.009)"><path d="M798.336-694.629a8.466 8.466 0 00-8.484 8.485v93.327c0 4.7 3.784 8.485 8.484 8.485h93.328c4.7 0 8.484-3.784 8.484-8.485v-93.327c0-4.7-3.784-8.485-8.484-8.485z" style="marker:none" fill="#fff" stroke="#3584e4" stroke-width="4"/><rect style="marker:none" width="96" height="88" x="797" y="599.48" rx="4" ry="4" transform="scale(1 -1)" fill="#3584e4"/><g fill="#fff" font-weight="700" font-family="Source Code Pro" letter-spacing="0" word-spacing="0"><path style="line-height:1.25;-inkscape-font-specification:'Source Code Pro, Bold';font-variant-ligatures:normal;font-variant-caps:normal;font-variant-numeric:normal;font-feature-settings:normal;text-align:start" d="M823.012-666.593L809-674.209v4.729l9.71 4.63v.141L809-659.48v4.728l14.012-8.215zM827-651.48v4h16v-4z"/></g></g><g transform="matrix(.2393 0 0 .2393 -1.501 250.493)"><rect ry="8.913" rx="8.913" y="173.839" x="14.98" height="120.322" width="98.04" style="marker:none" fill="#fff" stroke="#3584e4" stroke-width="6.314"/><path style="marker:none" d="M28 183.125c-2.216 0-4 1.784-4 4V216h80v-28.875c0-2.216-1.784-4-4-4zM24 218v30h80v-30zm0 32v29c0 2.216 1.784 4 4 4h72c2.216 0 4-1.784 4-4v-29z" fill="#3584e4"/><g fill="#fff"><path style="marker:none" d="M55 196c-1.662 0-3 1.338-3 3v5h4.031l-.015-2H72v2h4v-5c0-2-1.338-3-3-3zM55 229.333c-1.662 0-3 1.338-3 3v5h4.031l-.015-2H72v2h4v-5c0-2-1.338-3-3-3zM55 259.636c-1.662 0-3 1.338-3 3v5h4.031l-.015-2H72v2h4v-5c0-2-1.338-3-3-3z"/></g></g><path d="M72.915 172.444h-77.14a6.337 6.337 0 00-6.338 6.337" fill="none" stroke="#3584e4" stroke-width="2.967" stroke-linecap="square"/></g><path style="marker:none" d="M1078.75 348.293c-392.31 0-446.745 209.414-951.5 209.414" color="#000" overflow="visible" fill="none" stroke="#3584e4" stroke-dasharray="2,4"/></svg>