<svg xmlns="http://www.w3.org/2000/svg" width="1200" height="600"><defs><clipPath clipPathUnits="userSpaceOnUse" id="a"><path d="M228.46 29.202h833.574V319.49c-330.237 0-408.683 175.77-833.574 175.77z" style="marker:none" color="#000" overflow="visible" fill="#babdb6"/></clipPath><clipPath clipPathUnits="userSpaceOnUse" id="b"><path style="marker:none" color="#bebebe" overflow="visible" fill="#bebebe" stroke-width="2" d="M26.85 220.75h3.825v6.375H26.85z"/></clipPath><clipPath clipPathUnits="userSpaceOnUse" id="c"><path style="marker:none" color="#bebebe" overflow="visible" fill="#bebebe" stroke-width="2" d="M26.966 221.33h2.898v5.216h-2.898z"/></clipPath><clipPath clipPathUnits="userSpaceOnUse" id="d"><path style="marker:none" color="#bebebe" overflow="visible" fill="#bebebe" stroke-width="2" d="M26.999 221.502h1.876v4.873h-1.876z"/></clipPath></defs><g clip-path="url(#a)" transform="matrix(1.18678 0 0 1.18678 -157.774 -30.075)"><g transform="matrix(4 0 0 4 172 -591)"><path style="marker:none" color="#bebebe" overflow="visible" fill="none" d="M20 276h16v16H20z"/><rect style="marker:none" width="2" height="2" x="23.062" y="279" rx=".385" ry=".379" color="#000" overflow="visible"/><rect ry=".379" rx=".385" y="279" x="27.062" height="2" width="2" style="marker:none" color="#000" overflow="visible"/><rect style="marker:none" width="2" height="2" x="31.062" y="279" rx=".385" ry=".379" color="#000" overflow="visible"/><rect ry=".379" rx=".385" y="283.016" x="23.062" height="2" width="2" style="marker:none" color="#000" overflow="visible"/><rect style="marker:none" width="2" height="2" x="27.062" y="283.016" rx=".385" ry=".379" color="#000" overflow="visible"/><rect ry=".379" rx=".385" y="283.016" x="31.062" height="2" width="2" style="marker:none" color="#000" overflow="visible"/><rect style="marker:none" width="2" height="2" x="23.062" y="287" rx=".385" ry=".379" color="#000" overflow="visible"/><rect ry=".379" rx=".385" y="287" x="27.062" height="2" width="2" style="marker:none" color="#000" overflow="visible"/><rect style="marker:none" width="2" height="2" x="31.062" y="287" rx=".385" ry=".379" color="#000" overflow="visible"/></g><path style="marker:none" d="M239.06 57.414h800.88V108.9s-4.029-10.606-11.1-10.96L249 99c-4.596-.354-9.94 5.5-9.94 5.5z" color="#000" overflow="visible" fill="#fff"/><path style="marker:none" color="#000" overflow="visible" fill="#fff" stroke="#3584e4" stroke-width="3.372" d="M240.001 58.15h800.743v599.998H240.001z"/><path d="M1039.199 108.555c0-5.898-4.781-10.68-10.68-10.68H250.52c-5.898 0-10.68 4.782-10.68 10.68" fill="none" stroke="#3584e4" stroke-width="1.685" stroke-linecap="round"/><text y="86.187" x="628.846" style="line-height:0%;-inkscape-font-specification:'Cantarell Bold';text-align:center" font-weight="700" font-family="Cantarell" letter-spacing="0" word-spacing="0" text-anchor="middle" fill="#3584e4" transform="translate(11)"><tspan style="line-height:1.25" y="86.187" x="628.846" font-size="21.262">14:30</tspan></text><path d="M915.778 96.192h113.146c5.899 0 10.68 4.781 10.68 10.68" fill="none" stroke="#3584e4" stroke-width="5" stroke-linecap="square"/><text y="86.187" x="238.059" style="line-height:0%;-inkscape-font-specification:'Cantarell Bold';text-align:start" font-weight="700" font-family="Cantarell" letter-spacing="0" word-spacing="0" fill="#3584e4" transform="translate(11)"><tspan style="line-height:1.25" y="86.187" x="238.059" font-size="21.262">Activities</tspan></text><path style="marker:none" color="#000" overflow="visible" opacity=".706" fill="none" d="M733.912 129.896h32.362v32.362h-32.362z"/></g><g fill="#3584e4"><path style="marker:none" d="M978.703 59.218h3.987l4.765-4.815.878.025v17.654l-.764.001-4.879-4.84h-3.987z" color="#bebebe" overflow="visible"/><path style="line-height:normal;font-variant-ligatures:normal;font-variant-position:normal;font-variant-caps:normal;font-variant-numeric:normal;font-variant-alternates:normal;font-feature-settings:normal;text-indent:0;text-align:start;text-decoration-line:none;text-decoration-style:solid;text-decoration-color:#000;text-transform:none;text-orientation:mixed;white-space:normal;shape-padding:0;isolation:auto;mix-blend-mode:normal;solid-color:#000;solid-opacity:1" d="M27.178 220.396a1.275 1.275 0 00-.889 2.19 1.91 1.91 0 010 2.703 1.276 1.276 0 101.805 1.805 4.466 4.466 0 000-6.313 1.275 1.275 0 00-.916-.385z" clip-path="url(#b)" transform="matrix(1.25877 0 0 1.25877 956.14 -218.656)" color="#000" font-weight="400" font-family="sans-serif" overflow="visible"/><path style="line-height:normal;font-variant-ligatures:normal;font-variant-position:normal;font-variant-caps:normal;font-variant-numeric:normal;font-variant-alternates:normal;font-feature-settings:normal;text-indent:0;text-align:start;text-decoration-line:none;text-decoration-style:solid;text-decoration-color:#000;text-transform:none;text-orientation:mixed;white-space:normal;shape-padding:0;isolation:auto;mix-blend-mode:normal;solid-color:#000;solid-opacity:1" d="M27.186 221.098a.58.58 0 00-.405.996 2.606 2.606 0 010 3.687.58.58 0 10.82.82 3.769 3.769 0 000-5.328.58.58 0 00-.415-.175z" clip-path="url(#c)" transform="matrix(2.7693 0 0 2.7693 918.47 -556.92)" color="#000" font-weight="400" font-family="sans-serif" overflow="visible"/><path style="line-height:normal;font-variant-ligatures:normal;font-variant-position:normal;font-variant-caps:normal;font-variant-numeric:normal;font-variant-alternates:normal;font-feature-settings:normal;text-indent:0;text-align:start;text-decoration-line:none;text-decoration-style:solid;text-decoration-color:#000;text-transform:none;text-orientation:mixed;white-space:normal;shape-padding:0;isolation:auto;mix-blend-mode:normal;solid-color:#000;solid-opacity:1" d="M27.188 221.305a.375.375 0 00-.262.644 2.811 2.811 0 010 3.977.376.376 0 10.531.531 3.564 3.564 0 000-5.039.375.375 0 00-.27-.113z" clip-path="url(#d)" transform="translate(880.802 -895.182) scale(4.27983)" color="#000" font-weight="400" font-family="sans-serif" overflow="visible" opacity=".35"/><path style="line-height:normal;font-variant-ligatures:normal;font-variant-position:normal;font-variant-caps:normal;font-variant-numeric:normal;font-variant-alternates:normal;font-feature-settings:normal;text-indent:0;text-align:start;text-decoration-line:none;text-decoration-style:solid;text-decoration-color:#000;text-transform:none;text-orientation:mixed;white-space:normal;shape-padding:0;isolation:auto;mix-blend-mode:normal;solid-color:#000;solid-opacity:1;marker:none" d="M1018.889 54.082a1.605 1.605 0 00-.874.227 11.25 11.25 0 00-5.225 12.63 11.247 11.247 0 0010.835 8.328c5.072.006 9.532-3.4 10.858-8.296a11.252 11.252 0 00-5.19-12.646 1.605 1.605 0 10-1.614 2.773 8.014 8.014 0 013.706 9.033 8.009 8.009 0 01-7.755 5.927 8.009 8.009 0 01-7.738-5.949 8.011 8.011 0 013.731-9.023 1.605 1.605 0 00-.734-3.003z" color="#000" font-weight="400" font-family="sans-serif" overflow="visible"/><path style="line-height:normal;font-variant-ligatures:normal;font-variant-position:normal;font-variant-caps:normal;font-variant-numeric:normal;font-variant-alternates:normal;font-feature-settings:normal;text-indent:0;text-align:start;text-decoration-line:none;text-decoration-style:solid;text-decoration-color:#000;text-transform:none;text-orientation:mixed;white-space:normal;shape-padding:0;isolation:auto;mix-blend-mode:normal;solid-color:#000;solid-opacity:1" d="M1023.616 51.17a1.605 1.605 0 00-1.58 1.63v8.024a1.605 1.605 0 103.209 0V52.8a1.605 1.605 0 00-1.629-1.629z" color="#000" font-weight="400" font-family="sans-serif" overflow="visible"/><path style="line-height:normal;-inkscape-font-specification:Sans;text-indent:0;text-align:start;text-decoration-line:none;text-transform:none;marker:none" d="M949.53 52.93c-1.528 0-2.809 1.281-2.809 2.81v7.221c0 1.529 1.28 2.81 2.809 2.81h.2l-1.254 2.507-1.154 2.307h14.846l-1.153-2.307-1.254-2.508h.2c1.528 0 2.809-1.28 2.809-2.809V55.74c0-1.528-1.28-2.808-2.809-2.808zm.4 3.21h9.63v6.42h-9.63z" color="#bebebe" font-weight="400" font-family="Sans" overflow="visible"/><path style="line-height:normal;font-variant-ligatures:normal;font-variant-position:normal;font-variant-caps:normal;font-variant-numeric:normal;font-variant-alternates:normal;font-feature-settings:normal;text-indent:0;text-align:start;text-decoration-line:none;text-decoration-style:solid;text-decoration-color:#000;text-transform:none;text-orientation:mixed;white-space:normal;shape-padding:0;isolation:auto;mix-blend-mode:normal;solid-color:#000;solid-opacity:1;marker:none" d="M953.14 67.376v6.42h3.21v-6.42z" color="#bebebe" font-weight="400" font-family="sans-serif" overflow="visible"/><path style="line-height:normal;font-variant-ligatures:normal;font-variant-position:normal;font-variant-caps:normal;font-variant-numeric:normal;font-variant-alternates:normal;font-feature-settings:normal;text-indent:0;text-align:start;text-decoration-line:none;text-decoration-style:solid;text-decoration-color:#000;text-transform:none;text-orientation:mixed;white-space:normal;shape-padding:0;isolation:auto;mix-blend-mode:normal;solid-color:#000;solid-opacity:1;marker:none" d="M945.115 73.795v3.209h19.26v-3.209z" color="#bebebe" font-weight="400" font-family="sans-serif" overflow="visible"/><path d="M1059.122 64.701l-6.019 6.019-6.018-6.019z" style="marker:none" color="#000" overflow="visible"/></g><path style="marker:none" d="M1078.75 348.293c-392.31 0-446.745 209.414-951.5 209.414" color="#000" overflow="visible" fill="none" stroke="#3584e4" stroke-dasharray="2,4"/><path d="M996.03 95.984l-19.145 19.147H732.707a16.615 16.615 0 00-16.656 16.655v304.522c0 9.231 7.426 16.708 16.656 16.708h304.522c9.231 0 16.708-7.477 16.708-16.708V131.786c0-9.231-7.477-16.655-16.708-16.655h-22.104z" style="marker:none" color="#000" overflow="visible" fill="#3584e4"/></svg>